{
  "cells": [
    {
      "cell_type": "code",
      "execution_count": null,
      "metadata": {
        "id": "5KGUB6PCL2rO"
      },
      "outputs": [],
      "source": [
        "import os\n",
        "from getpass import getpass\n",
        "import urllib\n"
      ]
    },
    {
      "attachments": {},
      "cell_type": "markdown",
      "metadata": {
        "id": "QmVy0DI3qCwL"
      },
      "source": [
        "# SETUP"
      ]
    },
    {
      "cell_type": "code",
      "execution_count": null,
      "metadata": {
        "id": "7zUsOJaVHNwC"
      },
      "outputs": [],
      "source": [
        "#@title Default title text\n",
        "basePath = \"\"\n",
        "%%capture\n",
        "wav2lipFolderName = 'Wav2Lip'\n",
        "gfpganFolderName = 'GFPGAN'\n",
        "wav2lipPath = basePath + '/' + wav2lipFolderName\n",
        "gfpganPath = basePath + '/' + gfpganFolderName \n",
        "\n",
        "!cp {basePath}/inference.py {wav2lipPath}\n",
        "!cp {basePath}/audio.py {wav2lipPath}\n",
        "\n",
        "\n",
        "!wget 'https://www.adrianbulat.com/downloads/python-fan/s3fd-619a316812.pth' -O {wav2lipPath}'/face_detection/detection/sfd/s3fd.pth'\n",
        "# !gdown https://drive.google.com/uc?id=1fQtBSYEyuai9MjBOF8j7zZ4oQ9W2N64q --output {wav2lipPath}'/checkpoints/'\n",
        "!wget 'https://iiitaphyd-my.sharepoint.com/personal/radrabha_m_research_iiit_ac_in/_layouts/15/download.aspx?share=EdjI7bZlgApMqsVoEUUXpLsBxqXbn5z8VTmoxp55YNDcIA' -O {wav2lipPath}'/checkpoints/wav2lip_gan.pth'\n",
        "!wget 'https://iiitaphyd-my.sharepoint.com/:u:/g/personal/radrabha_m_research_iiit_ac_in/Eb3LEzbfuKlJiR600lQWRxgBIY27JZg80f7V9jtMfbNDaQ?e=TBFBVW' -O {wav2lipPath}'/checkpoints/wav2lip.pth'\n",
        "\n",
        "!pip install -r requirements.txt\n",
        "!pip install deepface"
      ]
    },
    {
      "attachments": {},
      "cell_type": "markdown",
      "metadata": {
        "id": "dwKDRNcbqZDK"
      },
      "source": [
        "# Execution"
      ]
    },
    {
      "cell_type": "code",
      "execution_count": null,
      "metadata": {
        "id": "9qnPHVu9qYTg"
      },
      "outputs": [],
      "source": [
        "import os\n",
        "outputPath = basePath+'/outputs'\n",
        "# inputAudioPath = basePath + '/sample-inputs/audio/output_tamil.wav'\n",
        "inputAudioPath= \"/content/output_tamil.wav\"\n",
        "inputVideoPath = \"/content/demo_6.mp4\"\n",
        "# inputVideoPath = basePath + '/sample-inputs/video/demo_new.mp4'\n",
        "lipSyncedOutputPath = basePath + '/outputs/result.mp4'\n",
        "base_faces_path = basePath + '/sample-inputs/image/'\n",
        "backends = [\n",
        "  'opencv', \n",
        "  'ssd', \n",
        "  'dlib', \n",
        "  'mtcnn', \n",
        "  'retinaface', \n",
        "  'mediapipe'\n",
        "]\n",
        "models = [\n",
        "  \"VGG-Face\", \n",
        "  \"Facenet\", \n",
        "  \"Facenet512\", \n",
        "  \"OpenFace\", \n",
        "  \"DeepFace\", \n",
        "  \"DeepID\", \n",
        "  \"ArcFace\", \n",
        "  \"Dlib\", \n",
        "  \"SFace\",\n",
        "]\n",
        "metrics = [\"cosine\", \"euclidean\", \"euclidean_l2\"]\n",
        "\n",
        "# transcript = basePath + \"/transcript.txt\"\n",
        "transcript = \"/content/transcript.txt\"\n",
        "\n",
        "if not os.path.exists(outputPath):\n",
        "  os.makedirs(outputPath)\n"
      ]
    },
    {
      "cell_type": "code",
      "execution_count": null,
      "metadata": {
        "colab": {
          "base_uri": "https://localhost:8080/"
        },
        "id": "NMUCRbjOHQ1B",
        "outputId": "36408976-f84d-4e5e-f852-13b5cbbaaeb5"
      },
      "outputs": [
        {
          "name": "stdout",
          "output_type": "stream",
          "text": [
            "2023-04-17 18:14:59.829363: I tensorflow/core/platform/cpu_feature_guard.cc:182] This TensorFlow binary is optimized to use available CPU instructions in performance-critical operations.\n",
            "To enable the following instructions: AVX2 FMA, in other operations, rebuild TensorFlow with the appropriate compiler flags.\n",
            "2023-04-17 18:15:01.210713: W tensorflow/compiler/tf2tensorrt/utils/py_utils.cc:38] TF-TRT Warning: Could not find TensorRT\n",
            "Using cuda for inference.\n",
            "Load checkpoint from: checkpoints/wav2lip_gan.pth\n",
            "Model loaded\n",
            "/content/transcript.txt\n",
            "Reading video frames...\n",
            "Number of frames available for inference: 91\n",
            "(80, 241)\n",
            "Length of mel chunks: 86\n",
            "  0% 0/1 [00:00<?, ?it/s]\n",
            "  0% 0/86 [00:00<?, ?it/s]\u001b[A2023-04-17 18:15:07.855300: I tensorflow/compiler/xla/stream_executor/cuda/cuda_gpu_executor.cc:996] successful NUMA node read from SysFS had negative value (-1), but there must be at least one NUMA node, so returning NUMA node zero. See more at https://github.com/torvalds/linux/blob/v6.0/Documentation/ABI/testing/sysfs-bus-pci#L344-L355\n",
            "2023-04-17 18:15:07.860455: I tensorflow/compiler/xla/stream_executor/cuda/cuda_gpu_executor.cc:996] successful NUMA node read from SysFS had negative value (-1), but there must be at least one NUMA node, so returning NUMA node zero. See more at https://github.com/torvalds/linux/blob/v6.0/Documentation/ABI/testing/sysfs-bus-pci#L344-L355\n",
            "2023-04-17 18:15:07.860676: I tensorflow/compiler/xla/stream_executor/cuda/cuda_gpu_executor.cc:996] successful NUMA node read from SysFS had negative value (-1), but there must be at least one NUMA node, so returning NUMA node zero. See more at https://github.com/torvalds/linux/blob/v6.0/Documentation/ABI/testing/sysfs-bus-pci#L344-L355\n",
            "2023-04-17 18:15:07.861344: I tensorflow/compiler/xla/stream_executor/cuda/cuda_gpu_executor.cc:996] successful NUMA node read from SysFS had negative value (-1), but there must be at least one NUMA node, so returning NUMA node zero. See more at https://github.com/torvalds/linux/blob/v6.0/Documentation/ABI/testing/sysfs-bus-pci#L344-L355\n",
            "2023-04-17 18:15:07.861550: I tensorflow/compiler/xla/stream_executor/cuda/cuda_gpu_executor.cc:996] successful NUMA node read from SysFS had negative value (-1), but there must be at least one NUMA node, so returning NUMA node zero. See more at https://github.com/torvalds/linux/blob/v6.0/Documentation/ABI/testing/sysfs-bus-pci#L344-L355\n",
            "2023-04-17 18:15:07.861719: I tensorflow/compiler/xla/stream_executor/cuda/cuda_gpu_executor.cc:996] successful NUMA node read from SysFS had negative value (-1), but there must be at least one NUMA node, so returning NUMA node zero. See more at https://github.com/torvalds/linux/blob/v6.0/Documentation/ABI/testing/sysfs-bus-pci#L344-L355\n",
            "2023-04-17 18:15:07.862088: I tensorflow/compiler/xla/stream_executor/cuda/cuda_gpu_executor.cc:996] successful NUMA node read from SysFS had negative value (-1), but there must be at least one NUMA node, so returning NUMA node zero. See more at https://github.com/torvalds/linux/blob/v6.0/Documentation/ABI/testing/sysfs-bus-pci#L344-L355\n",
            "2023-04-17 18:15:07.862295: I tensorflow/compiler/xla/stream_executor/cuda/cuda_gpu_executor.cc:996] successful NUMA node read from SysFS had negative value (-1), but there must be at least one NUMA node, so returning NUMA node zero. See more at https://github.com/torvalds/linux/blob/v6.0/Documentation/ABI/testing/sysfs-bus-pci#L344-L355\n",
            "2023-04-17 18:15:07.862479: I tensorflow/compiler/xla/stream_executor/cuda/cuda_gpu_executor.cc:996] successful NUMA node read from SysFS had negative value (-1), but there must be at least one NUMA node, so returning NUMA node zero. See more at https://github.com/torvalds/linux/blob/v6.0/Documentation/ABI/testing/sysfs-bus-pci#L344-L355\n",
            "2023-04-17 18:15:07.862623: W tensorflow/core/common_runtime/gpu/gpu_bfc_allocator.cc:47] Overriding orig_value setting because the TF_FORCE_GPU_ALLOW_GROWTH environment variable is set. Original config value was 0.\n",
            "2023-04-17 18:15:07.862661: I tensorflow/core/common_runtime/gpu/gpu_device.cc:1635] Created device /job:localhost/replica:0/task:0/device:GPU:0 with 12606 MB memory:  -> device: 0, name: Tesla T4, pci bus id: 0000:00:04.0, compute capability: 7.5\n",
            "2023-04-17 18:15:08.595445: W tensorflow/tsl/framework/cpu_allocator_impl.cc:83] Allocation of 411041792 exceeds 10% of free system memory.\n",
            "2023-04-17 18:15:10.058946: I tensorflow/compiler/xla/stream_executor/cuda/cuda_dnn.cc:424] Loaded cuDNN version 8700\n",
            "\n",
            "  1% 1/86 [00:04<06:34,  4.64s/it]\u001b[A\n",
            "  2% 2/86 [00:06<03:48,  2.73s/it]\u001b[A\n",
            "  3% 3/86 [00:07<02:51,  2.06s/it]\u001b[A\n",
            "  5% 4/86 [00:08<02:12,  1.62s/it]\u001b[A\n",
            "  6% 5/86 [00:09<01:50,  1.37s/it]\u001b[A\n",
            "  7% 6/86 [00:10<01:44,  1.30s/it]\u001b[A\n",
            "  8% 7/86 [00:11<01:33,  1.19s/it]\u001b[A\n",
            "  9% 8/86 [00:12<01:28,  1.14s/it]\u001b[A\n",
            " 10% 9/86 [00:13<01:22,  1.07s/it]\u001b[A\n",
            " 12% 10/86 [00:14<01:18,  1.04s/it]\u001b[A\n",
            " 13% 11/86 [00:15<01:15,  1.01s/it]\u001b[A\n",
            " 14% 12/86 [00:16<01:12,  1.02it/s]\u001b[A\n",
            " 15% 13/86 [00:17<01:11,  1.03it/s]\u001b[A\n",
            " 16% 14/86 [00:18<01:19,  1.10s/it]\u001b[A\n",
            " 17% 15/86 [00:19<01:24,  1.19s/it]\u001b[A\n",
            " 19% 16/86 [00:20<01:17,  1.11s/it]\u001b[A\n",
            " 20% 17/86 [00:21<01:13,  1.06s/it]\u001b[A\n",
            " 21% 18/86 [00:22<01:09,  1.02s/it]\u001b[A\n",
            " 22% 19/86 [00:23<01:06,  1.01it/s]\u001b[A\n",
            " 23% 20/86 [00:24<01:05,  1.01it/s]\u001b[A\n",
            " 24% 21/86 [00:25<01:02,  1.04it/s]\u001b[A\n",
            " 26% 22/86 [00:26<01:01,  1.05it/s]\u001b[A\n",
            " 27% 23/86 [00:27<00:59,  1.06it/s]\u001b[A\n",
            " 28% 24/86 [00:28<00:58,  1.06it/s]\u001b[A\n",
            " 29% 25/86 [00:29<00:57,  1.06it/s]\u001b[A\n",
            " 30% 26/86 [00:30<01:04,  1.08s/it]\u001b[A\n",
            " 31% 27/86 [00:31<01:08,  1.16s/it]\u001b[A\n",
            " 33% 28/86 [00:32<01:03,  1.09s/it]\u001b[A\n",
            " 34% 29/86 [00:33<01:00,  1.07s/it]\u001b[A\n",
            " 35% 30/86 [00:34<00:57,  1.03s/it]\u001b[A\n",
            " 36% 31/86 [00:35<00:54,  1.00it/s]\u001b[A\n",
            " 37% 32/86 [00:36<00:52,  1.03it/s]\u001b[A\n",
            " 38% 33/86 [00:37<00:50,  1.05it/s]\u001b[A\n",
            " 40% 34/86 [00:38<00:48,  1.06it/s]\u001b[A\n",
            " 41% 35/86 [00:39<00:47,  1.06it/s]\u001b[A\n",
            " 42% 36/86 [00:40<00:47,  1.05it/s]\u001b[A\n",
            " 43% 37/86 [00:41<00:46,  1.06it/s]\u001b[A\n",
            " 44% 38/86 [00:42<00:48,  1.01s/it]\u001b[A\n",
            " 45% 39/86 [00:43<00:54,  1.16s/it]\u001b[A\n",
            " 47% 40/86 [00:44<00:50,  1.10s/it]\u001b[A\n",
            " 48% 41/86 [00:45<00:46,  1.04s/it]\u001b[A\n",
            " 49% 42/86 [00:46<00:44,  1.01s/it]\u001b[A\n",
            " 50% 43/86 [00:47<00:43,  1.01s/it]\u001b[A\n",
            " 51% 44/86 [00:48<00:42,  1.01s/it]\u001b[A\n",
            " 52% 45/86 [00:49<00:40,  1.02it/s]\u001b[A\n",
            " 53% 46/86 [00:50<00:38,  1.04it/s]\u001b[A\n",
            " 55% 47/86 [00:51<00:38,  1.03it/s]\u001b[A\n",
            " 56% 48/86 [00:52<00:36,  1.04it/s]\u001b[A\n",
            " 57% 49/86 [00:53<00:35,  1.04it/s]\u001b[A\n",
            " 58% 50/86 [00:54<00:36,  1.01s/it]\u001b[A\n",
            " 59% 51/86 [00:56<00:40,  1.15s/it]\u001b[A\n",
            " 60% 52/86 [00:57<00:38,  1.13s/it]\u001b[A\n",
            " 62% 53/86 [00:58<00:35,  1.07s/it]\u001b[A\n",
            " 63% 54/86 [00:59<00:32,  1.03s/it]\u001b[A\n",
            " 64% 55/86 [00:59<00:31,  1.00s/it]\u001b[A\n",
            " 65% 56/86 [01:00<00:29,  1.01it/s]\u001b[A\n",
            " 66% 57/86 [01:01<00:28,  1.03it/s]\u001b[A\n",
            " 67% 58/86 [01:02<00:26,  1.05it/s]\u001b[A\n",
            " 69% 59/86 [01:03<00:26,  1.03it/s]\u001b[A\n",
            " 70% 60/86 [01:04<00:25,  1.02it/s]\u001b[A\n",
            " 71% 61/86 [01:05<00:25,  1.00s/it]\u001b[A\n",
            " 72% 62/86 [01:06<00:24,  1.03s/it]\u001b[A\n",
            " 73% 63/86 [01:08<00:26,  1.16s/it]\u001b[A\n",
            " 74% 64/86 [01:09<00:25,  1.14s/it]\u001b[A\n",
            " 76% 65/86 [01:10<00:23,  1.10s/it]\u001b[A\n",
            " 77% 66/86 [01:11<00:21,  1.07s/it]\u001b[A\n",
            " 78% 67/86 [01:12<00:20,  1.07s/it]\u001b[A\n",
            " 79% 68/86 [01:13<00:18,  1.03s/it]\u001b[A\n",
            " 80% 69/86 [01:14<00:17,  1.00s/it]\u001b[A\n",
            " 81% 70/86 [01:15<00:15,  1.02it/s]\u001b[A\n",
            " 83% 71/86 [01:16<00:14,  1.03it/s]\u001b[A\n",
            " 84% 72/86 [01:17<00:13,  1.04it/s]\u001b[A\n",
            " 85% 73/86 [01:18<00:12,  1.05it/s]\u001b[A\n",
            " 86% 74/86 [01:19<00:11,  1.04it/s]\u001b[A\n",
            " 87% 75/86 [01:20<00:11,  1.09s/it]\u001b[A\n",
            " 88% 76/86 [01:21<00:11,  1.14s/it]\u001b[A\n",
            " 90% 77/86 [01:22<00:09,  1.08s/it]\u001b[A\n",
            " 91% 78/86 [01:23<00:08,  1.06s/it]\u001b[A\n",
            " 92% 79/86 [01:24<00:07,  1.02s/it]\u001b[A\n",
            " 93% 80/86 [01:25<00:05,  1.01it/s]\u001b[A\n",
            " 94% 81/86 [01:26<00:05,  1.00s/it]\u001b[A\n",
            " 95% 82/86 [01:27<00:03,  1.02it/s]\u001b[A\n",
            " 97% 83/86 [01:28<00:02,  1.04it/s]\u001b[A\n",
            " 98% 84/86 [01:29<00:01,  1.05it/s]\u001b[A\n",
            " 99% 85/86 [01:30<00:00,  1.06it/s]\u001b[A\n",
            "100% 86/86 [01:31<00:00,  1.06s/it]\n",
            "100% 1/1 [01:37<00:00, 97.09s/it]\n",
            "Reading video frames...\n",
            "Number of frames available for inference: 248\n",
            "(80, 516)\n",
            "Length of mel chunks: 189\n",
            "  0% 0/2 [00:00<?, ?it/s]\n",
            "  0% 0/189 [00:00<?, ?it/s]\u001b[A\n",
            "  1% 1/189 [00:01<03:22,  1.08s/it]\u001b[A\n",
            "  1% 2/189 [00:02<03:14,  1.04s/it]\u001b[A\n",
            "  2% 3/189 [00:03<03:14,  1.04s/it]\u001b[A\n",
            "  2% 4/189 [00:04<03:11,  1.04s/it]\u001b[A\n",
            "  3% 5/189 [00:05<03:14,  1.06s/it]\u001b[A\n",
            "  3% 6/189 [00:06<03:13,  1.06s/it]\u001b[A\n",
            "  4% 7/189 [00:07<03:44,  1.23s/it]\u001b[A\n",
            "  4% 8/189 [00:09<03:46,  1.25s/it]\u001b[A\n",
            "  5% 9/189 [00:10<03:42,  1.23s/it]\u001b[A\n",
            "  5% 10/189 [00:11<03:29,  1.17s/it]\u001b[A\n",
            "  6% 11/189 [00:12<03:20,  1.12s/it]\u001b[A\n",
            "  6% 12/189 [00:13<03:18,  1.12s/it]\u001b[A\n",
            "  7% 13/189 [00:14<03:12,  1.10s/it]\u001b[A\n",
            "  7% 14/189 [00:15<03:08,  1.08s/it]\u001b[A\n",
            "  8% 15/189 [00:16<03:05,  1.07s/it]\u001b[A\n",
            "  8% 16/189 [00:17<03:02,  1.05s/it]\u001b[A\n",
            "  9% 17/189 [00:18<03:07,  1.09s/it]\u001b[A\n",
            " 10% 18/189 [00:20<03:38,  1.28s/it]\u001b[A\n",
            " 10% 19/189 [00:21<03:31,  1.24s/it]\u001b[A\n",
            " 11% 20/189 [00:22<03:18,  1.18s/it]\u001b[A\n",
            " 11% 21/189 [00:23<03:14,  1.16s/it]\u001b[A\n",
            " 12% 22/189 [00:24<03:06,  1.12s/it]\u001b[A\n",
            " 12% 23/189 [00:25<03:03,  1.10s/it]\u001b[A\n",
            " 13% 24/189 [00:27<02:59,  1.09s/it]\u001b[A\n",
            " 13% 25/189 [00:28<02:55,  1.07s/it]\u001b[A\n",
            " 14% 26/189 [00:29<02:52,  1.06s/it]\u001b[A\n",
            " 14% 27/189 [00:30<02:50,  1.05s/it]\u001b[A\n",
            " 15% 28/189 [00:31<02:50,  1.06s/it]\u001b[A\n",
            " 15% 29/189 [00:32<03:15,  1.22s/it]\u001b[A\n",
            " 16% 30/189 [00:34<03:17,  1.24s/it]\u001b[A\n",
            " 16% 31/189 [00:35<03:14,  1.23s/it]\u001b[A\n",
            " 17% 32/189 [00:36<03:07,  1.19s/it]\u001b[A\n",
            " 17% 33/189 [00:37<02:58,  1.14s/it]\u001b[A\n",
            " 18% 34/189 [00:38<02:51,  1.11s/it]\u001b[A\n",
            " 19% 35/189 [00:39<02:47,  1.09s/it]\u001b[A\n",
            " 19% 36/189 [00:40<02:43,  1.07s/it]\u001b[A\n",
            " 20% 37/189 [00:41<02:44,  1.08s/it]\u001b[A\n",
            " 20% 38/189 [00:42<02:40,  1.06s/it]\u001b[A\n",
            " 21% 39/189 [00:43<02:47,  1.12s/it]\u001b[A\n",
            " 21% 40/189 [00:45<03:16,  1.32s/it]\u001b[A\n",
            " 22% 41/189 [00:46<03:06,  1.26s/it]\u001b[A\n",
            " 22% 42/189 [00:47<02:55,  1.19s/it]\u001b[A\n",
            " 23% 43/189 [00:48<02:46,  1.14s/it]\u001b[A\n",
            " 23% 44/189 [00:49<02:41,  1.11s/it]\u001b[A\n",
            " 24% 45/189 [00:51<02:40,  1.11s/it]\u001b[A\n",
            " 24% 46/189 [00:52<02:35,  1.09s/it]\u001b[A\n",
            " 25% 47/189 [00:53<02:32,  1.07s/it]\u001b[A\n",
            " 25% 48/189 [00:54<02:30,  1.07s/it]\u001b[A\n",
            " 26% 49/189 [00:55<02:32,  1.09s/it]\u001b[A\n",
            " 26% 50/189 [00:56<02:45,  1.19s/it]\u001b[A\n",
            " 27% 51/189 [00:58<02:59,  1.30s/it]\u001b[A\n",
            " 28% 52/189 [00:59<02:47,  1.22s/it]\u001b[A\n",
            " 28% 53/189 [01:00<02:39,  1.17s/it]\u001b[A\n",
            " 29% 54/189 [01:01<02:33,  1.14s/it]\u001b[A\n",
            " 29% 55/189 [01:02<02:29,  1.11s/it]\u001b[A\n",
            " 30% 56/189 [01:03<02:25,  1.10s/it]\u001b[A\n",
            " 30% 57/189 [01:04<02:23,  1.09s/it]\u001b[A\n",
            " 31% 58/189 [01:05<02:20,  1.08s/it]\u001b[A\n",
            " 31% 59/189 [01:06<02:18,  1.07s/it]\u001b[A\n",
            " 32% 60/189 [01:07<02:16,  1.06s/it]\u001b[A\n",
            " 32% 61/189 [01:09<02:25,  1.13s/it]\u001b[A\n",
            " 33% 62/189 [01:10<02:42,  1.28s/it]\u001b[A\n",
            " 33% 63/189 [01:11<02:32,  1.21s/it]\u001b[A\n",
            " 34% 64/189 [01:12<02:27,  1.18s/it]\u001b[A\n",
            " 34% 65/189 [01:14<02:27,  1.19s/it]\u001b[A\n",
            " 35% 66/189 [01:15<02:19,  1.14s/it]\u001b[A\n",
            " 35% 67/189 [01:16<02:15,  1.11s/it]\u001b[A\n",
            " 36% 68/189 [01:17<02:11,  1.09s/it]\u001b[A\n",
            " 37% 69/189 [01:18<02:08,  1.07s/it]\u001b[A\n",
            " 37% 70/189 [01:19<02:05,  1.05s/it]\u001b[A\n",
            " 38% 71/189 [01:20<02:05,  1.06s/it]\u001b[A\n",
            " 38% 72/189 [01:21<02:14,  1.15s/it]\u001b[A\n",
            " 39% 73/189 [01:23<02:24,  1.24s/it]\u001b[A\n",
            " 39% 74/189 [01:24<02:19,  1.21s/it]\u001b[A\n",
            " 40% 75/189 [01:25<02:11,  1.16s/it]\u001b[A\n",
            " 40% 76/189 [01:26<02:06,  1.12s/it]\u001b[A\n",
            " 41% 77/189 [01:27<02:02,  1.09s/it]\u001b[A\n",
            " 41% 78/189 [01:28<01:59,  1.07s/it]\u001b[A\n",
            " 42% 79/189 [01:29<01:56,  1.06s/it]\u001b[A\n",
            " 42% 80/189 [01:30<01:54,  1.05s/it]\u001b[A\n",
            " 43% 81/189 [01:31<01:52,  1.04s/it]\u001b[A\n",
            " 43% 82/189 [01:32<01:50,  1.03s/it]\u001b[A\n",
            " 44% 83/189 [01:33<01:54,  1.08s/it]\u001b[A\n",
            " 44% 84/189 [01:35<02:12,  1.27s/it]\u001b[A\n",
            " 45% 85/189 [01:36<02:06,  1.21s/it]\u001b[A\n",
            " 46% 86/189 [01:37<01:59,  1.16s/it]\u001b[A\n",
            " 46% 87/189 [01:38<01:53,  1.12s/it]\u001b[A\n",
            " 47% 88/189 [01:39<01:49,  1.08s/it]\u001b[A\n",
            " 47% 89/189 [01:40<01:47,  1.07s/it]\u001b[A\n",
            " 48% 90/189 [01:41<01:47,  1.08s/it]\u001b[A\n",
            " 48% 91/189 [01:42<01:44,  1.07s/it]\u001b[A\n",
            " 49% 92/189 [01:43<01:42,  1.06s/it]\u001b[A\n",
            " 49% 93/189 [01:44<01:41,  1.05s/it]\u001b[A\n",
            " 50% 94/189 [01:45<01:42,  1.08s/it]\u001b[A\n",
            " 50% 95/189 [01:47<02:00,  1.28s/it]\u001b[A\n",
            " 51% 96/189 [01:48<01:53,  1.22s/it]\u001b[A\n",
            " 51% 97/189 [01:49<01:47,  1.16s/it]\u001b[A\n",
            " 52% 98/189 [01:50<01:42,  1.12s/it]\u001b[A\n",
            " 52% 99/189 [01:51<01:38,  1.09s/it]\u001b[A\n",
            " 53% 100/189 [01:52<01:35,  1.07s/it]\u001b[A\n",
            " 53% 101/189 [01:53<01:37,  1.10s/it]\u001b[A\n",
            " 54% 102/189 [01:54<01:33,  1.08s/it]\u001b[A\n",
            " 54% 103/189 [01:56<01:31,  1.06s/it]\u001b[A\n",
            " 55% 104/189 [01:57<01:30,  1.07s/it]\u001b[A\n",
            " 56% 105/189 [01:58<01:34,  1.12s/it]\u001b[A\n",
            " 56% 106/189 [02:00<01:48,  1.31s/it]\u001b[A\n",
            " 57% 107/189 [02:01<01:42,  1.25s/it]\u001b[A\n",
            " 57% 108/189 [02:02<01:37,  1.21s/it]\u001b[A\n",
            " 58% 109/189 [02:03<01:34,  1.18s/it]\u001b[A\n",
            " 58% 110/189 [02:04<01:29,  1.14s/it]\u001b[A\n",
            " 59% 111/189 [02:05<01:26,  1.11s/it]\u001b[A\n",
            " 59% 112/189 [02:06<01:23,  1.09s/it]\u001b[A\n",
            " 60% 113/189 [02:07<01:23,  1.09s/it]\u001b[A\n",
            " 60% 114/189 [02:08<01:20,  1.07s/it]\u001b[A\n",
            " 61% 115/189 [02:09<01:21,  1.11s/it]\u001b[A\n",
            " 61% 116/189 [02:11<01:29,  1.23s/it]\u001b[A\n",
            " 62% 117/189 [02:12<01:34,  1.31s/it]\u001b[A\n",
            " 62% 118/189 [02:13<01:29,  1.25s/it]\u001b[A\n",
            " 63% 119/189 [02:15<01:23,  1.19s/it]\u001b[A\n",
            " 63% 120/189 [02:16<01:19,  1.16s/it]\u001b[A\n",
            " 64% 121/189 [02:17<01:15,  1.12s/it]\u001b[A\n",
            " 65% 122/189 [02:18<01:13,  1.09s/it]\u001b[A\n",
            " 65% 123/189 [02:19<01:10,  1.08s/it]\u001b[A\n",
            " 66% 124/189 [02:20<01:09,  1.07s/it]\u001b[A\n",
            " 66% 125/189 [02:21<01:07,  1.06s/it]\u001b[A\n",
            " 67% 126/189 [02:22<01:06,  1.05s/it]\u001b[A\n",
            " 67% 127/189 [02:23<01:14,  1.20s/it]\u001b[A\n",
            " 68% 128/189 [02:25<01:18,  1.29s/it]\u001b[A\n",
            " 68% 129/189 [02:26<01:12,  1.22s/it]\u001b[A\n",
            " 69% 130/189 [02:27<01:08,  1.16s/it]\u001b[A\n",
            " 69% 131/189 [02:28<01:06,  1.14s/it]\u001b[A\n",
            " 70% 132/189 [02:29<01:03,  1.11s/it]\u001b[A\n",
            " 70% 133/189 [02:30<01:02,  1.11s/it]\u001b[A\n",
            " 71% 134/189 [02:31<01:00,  1.11s/it]\u001b[A\n",
            " 71% 135/189 [02:32<00:58,  1.09s/it]\u001b[A\n",
            " 72% 136/189 [02:33<00:57,  1.08s/it]\u001b[A\n",
            " 72% 137/189 [02:34<00:55,  1.06s/it]\u001b[A\n",
            " 73% 138/189 [02:36<01:00,  1.18s/it]\u001b[A\n",
            " 74% 139/189 [02:37<01:03,  1.27s/it]\u001b[A\n",
            " 74% 140/189 [02:38<00:58,  1.19s/it]\u001b[A\n",
            " 75% 141/189 [02:39<00:54,  1.14s/it]\u001b[A\n",
            " 75% 142/189 [02:40<00:51,  1.11s/it]\u001b[A\n",
            " 76% 143/189 [02:41<00:49,  1.09s/it]\u001b[A\n",
            " 76% 144/189 [02:42<00:48,  1.07s/it]\u001b[A\n",
            " 77% 145/189 [02:44<00:46,  1.06s/it]\u001b[A\n",
            " 77% 146/189 [02:45<00:44,  1.05s/it]\u001b[A\n",
            " 78% 147/189 [02:46<00:43,  1.05s/it]\u001b[A\n",
            " 78% 148/189 [02:47<00:42,  1.05s/it]\u001b[A\n",
            " 79% 149/189 [02:48<00:46,  1.16s/it]\u001b[A\n",
            " 79% 150/189 [02:50<00:51,  1.32s/it]\u001b[A\n",
            " 80% 151/189 [02:51<00:49,  1.31s/it]\u001b[A\n",
            " 80% 152/189 [02:52<00:47,  1.28s/it]\u001b[A\n",
            " 81% 153/189 [02:53<00:45,  1.26s/it]\u001b[A\n",
            " 81% 154/189 [02:54<00:41,  1.19s/it]\u001b[A\n",
            " 82% 155/189 [02:56<00:39,  1.17s/it]\u001b[A\n",
            " 83% 156/189 [02:57<00:37,  1.15s/it]\u001b[A\n",
            " 83% 157/189 [02:58<00:36,  1.15s/it]\u001b[A\n",
            " 84% 158/189 [02:59<00:35,  1.14s/it]\u001b[A\n",
            " 84% 159/189 [03:00<00:34,  1.16s/it]\u001b[A\n",
            " 85% 160/189 [03:02<00:38,  1.33s/it]\u001b[A\n",
            " 85% 161/189 [03:03<00:34,  1.25s/it]\u001b[A\n",
            " 86% 162/189 [03:04<00:32,  1.21s/it]\u001b[A\n",
            " 86% 163/189 [03:05<00:30,  1.16s/it]\u001b[A\n",
            " 87% 164/189 [03:06<00:28,  1.13s/it]\u001b[A\n",
            " 87% 165/189 [03:07<00:26,  1.10s/it]\u001b[A\n",
            " 88% 166/189 [03:08<00:25,  1.12s/it]\u001b[A\n",
            " 88% 167/189 [03:09<00:24,  1.10s/it]\u001b[A\n",
            " 89% 168/189 [03:11<00:23,  1.11s/it]\u001b[A\n",
            " 89% 169/189 [03:12<00:21,  1.08s/it]\u001b[A\n",
            " 90% 170/189 [03:13<00:23,  1.21s/it]\u001b[A\n",
            " 90% 171/189 [03:15<00:23,  1.29s/it]\u001b[A\n",
            " 91% 172/189 [03:16<00:20,  1.22s/it]\u001b[A\n",
            " 92% 173/189 [03:17<00:18,  1.16s/it]\u001b[A\n",
            " 92% 174/189 [03:18<00:16,  1.12s/it]\u001b[A\n",
            " 93% 175/189 [03:19<00:15,  1.10s/it]\u001b[A\n",
            " 93% 176/189 [03:20<00:14,  1.08s/it]\u001b[A\n",
            " 94% 177/189 [03:21<00:12,  1.07s/it]\u001b[A\n",
            " 94% 178/189 [03:22<00:11,  1.06s/it]\u001b[A\n",
            " 95% 179/189 [03:23<00:10,  1.05s/it]\u001b[A\n",
            " 95% 180/189 [03:24<00:09,  1.07s/it]\u001b[A\n",
            " 96% 181/189 [03:25<00:09,  1.18s/it]\u001b[A\n",
            " 96% 182/189 [03:27<00:09,  1.32s/it]\u001b[A\n",
            " 97% 183/189 [03:28<00:07,  1.27s/it]\u001b[A\n",
            " 97% 184/189 [03:29<00:05,  1.20s/it]\u001b[A\n",
            " 98% 185/189 [03:30<00:04,  1.15s/it]\u001b[A\n",
            " 98% 186/189 [03:31<00:03,  1.11s/it]\u001b[A\n",
            " 99% 187/189 [03:32<00:02,  1.11s/it]\u001b[A\n",
            " 99% 188/189 [03:33<00:01,  1.09s/it]\u001b[A\n",
            "100% 189/189 [03:34<00:00,  1.14s/it]\n",
            "100% 2/2 [03:48<00:00, 114.37s/it]\n",
            "ffmpeg version 4.2.7-0ubuntu0.1 Copyright (c) 2000-2022 the FFmpeg developers\n",
            "  built with gcc 9 (Ubuntu 9.4.0-1ubuntu1~20.04.1)\n",
            "  configuration: --prefix=/usr --extra-version=0ubuntu0.1 --toolchain=hardened --libdir=/usr/lib/x86_64-linux-gnu --incdir=/usr/include/x86_64-linux-gnu --arch=amd64 --enable-gpl --disable-stripping --enable-avresample --disable-filter=resample --enable-avisynth --enable-gnutls --enable-ladspa --enable-libaom --enable-libass --enable-libbluray --enable-libbs2b --enable-libcaca --enable-libcdio --enable-libcodec2 --enable-libflite --enable-libfontconfig --enable-libfreetype --enable-libfribidi --enable-libgme --enable-libgsm --enable-libjack --enable-libmp3lame --enable-libmysofa --enable-libopenjpeg --enable-libopenmpt --enable-libopus --enable-libpulse --enable-librsvg --enable-librubberband --enable-libshine --enable-libsnappy --enable-libsoxr --enable-libspeex --enable-libssh --enable-libtheora --enable-libtwolame --enable-libvidstab --enable-libvorbis --enable-libvpx --enable-libwavpack --enable-libwebp --enable-libx265 --enable-libxml2 --enable-libxvid --enable-libzmq --enable-libzvbi --enable-lv2 --enable-omx --enable-openal --enable-opencl --enable-opengl --enable-sdl2 --enable-libdc1394 --enable-libdrm --enable-libiec61883 --enable-nvenc --enable-chromaprint --enable-frei0r --enable-libx264 --enable-shared\n",
            "  libavutil      56. 31.100 / 56. 31.100\n",
            "  libavcodec     58. 54.100 / 58. 54.100\n",
            "  libavformat    58. 29.100 / 58. 29.100\n",
            "  libavdevice    58.  8.100 / 58.  8.100\n",
            "  libavfilter     7. 57.100 /  7. 57.100\n",
            "  libavresample   4.  0.  0 /  4.  0.  0\n",
            "  libswscale      5.  5.100 /  5.  5.100\n",
            "  libswresample   3.  5.100 /  3.  5.100\n",
            "  libpostproc    55.  5.100 / 55.  5.100\n",
            "\u001b[0;33mGuessed Channel Layout for Input Stream #0.0 : stereo\n",
            "\u001b[0mInput #0, wav, from '/content/output_tamil.wav':\n",
            "  Metadata:\n",
            "    encoder         : Lavf58.29.100\n",
            "  Duration: 00:00:09.45, bitrate: 1411 kb/s\n",
            "    Stream #0:0: Audio: pcm_s16le ([1][0][0][0] / 0x0001), 44100 Hz, stereo, s16, 1411 kb/s\n",
            "Input #1, avi, from 'temp/result.avi':\n",
            "  Metadata:\n",
            "    encoder         : Lavf59.27.100\n",
            "  Duration: 00:00:09.16, start: 0.000000, bitrate: 2132 kb/s\n",
            "    Stream #1:0: Video: mpeg4 (Simple Profile) (DIVX / 0x58564944), yuv420p, 640x368 [SAR 1:1 DAR 40:23], 2128 kb/s, 30.01 fps, 30 tbr, 30.01 tbn, 30007 tbc\n",
            "Stream mapping:\n",
            "  Stream #1:0 -> #0:0 (mpeg4 (native) -> h264 (libx264))\n",
            "  Stream #0:0 -> #0:1 (pcm_s16le (native) -> aac (native))\n",
            "Press [q] to stop, [?] for help\n",
            "\u001b[1;36m[libx264 @ 0x55d6e794ab00] \u001b[0m\u001b[0;33m-qscale is ignored, -crf is recommended.\n",
            "\u001b[0m\u001b[1;36m[libx264 @ 0x55d6e794ab00] \u001b[0musing SAR=1/1\n",
            "\u001b[1;36m[libx264 @ 0x55d6e794ab00] \u001b[0musing cpu capabilities: MMX2 SSE2Fast SSSE3 SSE4.2 AVX FMA3 BMI2 AVX2\n",
            "\u001b[1;36m[libx264 @ 0x55d6e794ab00] \u001b[0mprofile High, level 3.0\n",
            "\u001b[1;36m[libx264 @ 0x55d6e794ab00] \u001b[0m264 - core 155 r2917 0a84d98 - H.264/MPEG-4 AVC codec - Copyleft 2003-2018 - http://www.videolan.org/x264.html - options: cabac=1 ref=3 deblock=1:0:0 analyse=0x3:0x113 me=hex subme=7 psy=1 psy_rd=1.00:0.00 mixed_ref=1 me_range=16 chroma_me=1 trellis=1 8x8dct=1 cqm=0 deadzone=21,11 fast_pskip=1 chroma_qp_offset=-2 threads=3 lookahead_threads=1 sliced_threads=0 nr=0 decimate=1 interlaced=0 bluray_compat=0 constrained_intra=0 bframes=3 b_pyramid=2 b_adapt=1 b_bias=0 direct=1 weightb=1 open_gop=0 weightp=2 keyint=250 keyint_min=25 scenecut=40 intra_refresh=0 rc_lookahead=40 rc=crf mbtree=1 crf=23.0 qcomp=0.60 qpmin=0 qpmax=69 qpstep=4 ip_ratio=1.40 aq=1:1.00\n",
            "Output #0, mp4, to '/content/deepfake-dubbing/outputs/result.mp4':\n",
            "  Metadata:\n",
            "    encoder         : Lavf58.29.100\n",
            "    Stream #0:0: Video: h264 (libx264) (avc1 / 0x31637661), yuv420p(progressive), 640x368 [SAR 1:1 DAR 40:23], q=-1--1, 30 fps, 15360 tbn, 30 tbc\n",
            "    Metadata:\n",
            "      encoder         : Lavc58.54.100 libx264\n",
            "    Side data:\n",
            "      cpb: bitrate max/min/avg: 0/0/0 buffer size: 0 vbv_delay: -1\n",
            "    Stream #0:1: Audio: aac (LC) (mp4a / 0x6134706D), 44100 Hz, stereo, fltp, 128 kb/s\n",
            "    Metadata:\n",
            "      encoder         : Lavc58.54.100 aac\n",
            "frame=  275 fps= 63 q=-1.0 Lsize=    1058kB time=00:00:09.47 bitrate= 915.1kbits/s speed=2.18x    \n",
            "video:900kB audio:149kB subtitle:0kB other streams:0kB global headers:0kB muxing overhead: 0.953654%\n",
            "\u001b[1;36m[libx264 @ 0x55d6e794ab00] \u001b[0mframe I:2     Avg QP:20.98  size: 19674\n",
            "\u001b[1;36m[libx264 @ 0x55d6e794ab00] \u001b[0mframe P:204   Avg QP:23.89  size:  3997\n",
            "\u001b[1;36m[libx264 @ 0x55d6e794ab00] \u001b[0mframe B:69    Avg QP:27.26  size:   956\n",
            "\u001b[1;36m[libx264 @ 0x55d6e794ab00] \u001b[0mconsecutive B-frames: 62.5% 10.9%  3.3% 23.3%\n",
            "\u001b[1;36m[libx264 @ 0x55d6e794ab00] \u001b[0mmb I  I16..4: 24.0% 61.4% 14.7%\n",
            "\u001b[1;36m[libx264 @ 0x55d6e794ab00] \u001b[0mmb P  I16..4:  1.6%  3.4%  0.1%  P16..4: 30.3% 10.2%  7.1%  0.0%  0.0%    skip:47.3%\n",
            "\u001b[1;36m[libx264 @ 0x55d6e794ab00] \u001b[0mmb B  I16..4:  0.6%  1.9%  0.0%  B16..8: 36.3%  3.2%  0.7%  direct: 1.5%  skip:55.7%  L0:42.6% L1:50.6% BI: 6.8%\n",
            "\u001b[1;36m[libx264 @ 0x55d6e794ab00] \u001b[0m8x8 transform intra:66.9% inter:69.5%\n",
            "\u001b[1;36m[libx264 @ 0x55d6e794ab00] \u001b[0mcoded y,uvDC,uvAC intra: 31.7% 44.5% 7.0% inter: 13.9% 9.1% 0.4%\n",
            "\u001b[1;36m[libx264 @ 0x55d6e794ab00] \u001b[0mi16 v,h,dc,p: 37% 33% 22%  8%\n",
            "\u001b[1;36m[libx264 @ 0x55d6e794ab00] \u001b[0mi8 v,h,dc,ddl,ddr,vr,hd,vl,hu: 27% 21% 45%  2%  1%  1%  1%  1%  1%\n",
            "\u001b[1;36m[libx264 @ 0x55d6e794ab00] \u001b[0mi4 v,h,dc,ddl,ddr,vr,hd,vl,hu: 29% 21% 18%  5%  6%  6%  5%  4%  7%\n",
            "\u001b[1;36m[libx264 @ 0x55d6e794ab00] \u001b[0mi8c dc,h,v,p: 45% 28% 25%  2%\n",
            "\u001b[1;36m[libx264 @ 0x55d6e794ab00] \u001b[0mWeighted P-Frames: Y:1.5% UV:1.0%\n",
            "\u001b[1;36m[libx264 @ 0x55d6e794ab00] \u001b[0mref P L0: 72.4% 14.4%  9.2%  3.8%  0.1%\n",
            "\u001b[1;36m[libx264 @ 0x55d6e794ab00] \u001b[0mref B L0: 87.4%  9.4%  3.2%\n",
            "\u001b[1;36m[libx264 @ 0x55d6e794ab00] \u001b[0mref B L1: 97.0%  3.0%\n",
            "\u001b[1;36m[libx264 @ 0x55d6e794ab00] \u001b[0mkb/s:803.49\n",
            "\u001b[1;36m[aac @ 0x55d6e794a080] \u001b[0mQavg: 391.263\n"
          ]
        }
      ],
      "source": [
        "\n",
        "!cd $wav2lipFolderName && python inference.py \\\n",
        "--checkpoint_path checkpoints/wav2lip_gan.pth \\\n",
        "--face {inputVideoPath} \\\n",
        "--audio {inputAudioPath} \\\n",
        "--outfile {lipSyncedOutputPath} \\\n",
        "--base_faces_path {base_faces_path} \\\n",
        "--model_name {models[0]} \\\n",
        "--detector_backend {backends[0]} \\\n",
        "--distance_metrics {metrics[0]} \\\n",
        "--transcript {transcript} \\\n",
        "--fps {30}"
      ]
    },
    {
      "attachments": {},
      "cell_type": "markdown",
      "metadata": {
        "id": "I05HZnXAvlER"
      },
      "source": [
        "# GFPGAN"
      ]
    },
    {
      "cell_type": "code",
      "execution_count": null,
      "metadata": {
        "colab": {
          "base_uri": "https://localhost:8080/"
        },
        "id": "_oOLeC7bHS4-",
        "outputId": "e3b0d240-13f7-4289-8298-d2e0e37a6326"
      },
      "outputs": [
        {
          "name": "stdout",
          "output_type": "stream",
          "text": [
            "/usr/local/lib/python3.9/dist-packages/setuptools/__init__.py:85: _DeprecatedInstaller: setuptools.installer and fetch_build_eggs are deprecated. Requirements should be satisfied by a PEP 517 installer. If you are using pip, you can try `pip install --use-pep517`.\n",
            "  dist.fetch_build_eggs(dist.setup_requires)\n",
            "running develop\n",
            "/usr/local/lib/python3.9/dist-packages/setuptools/command/easy_install.py:144: EasyInstallDeprecationWarning: easy_install command is deprecated. Use build and pip and other standards-based tools.\n",
            "  warnings.warn(\n",
            "/usr/local/lib/python3.9/dist-packages/setuptools/command/install.py:34: SetuptoolsDeprecationWarning: setup.py install is deprecated. Use build and pip and other standards-based tools.\n",
            "  warnings.warn(\n",
            "running egg_info\n",
            "creating gfpgan.egg-info\n",
            "writing gfpgan.egg-info/PKG-INFO\n",
            "writing dependency_links to gfpgan.egg-info/dependency_links.txt\n",
            "writing requirements to gfpgan.egg-info/requires.txt\n",
            "writing top-level names to gfpgan.egg-info/top_level.txt\n",
            "writing manifest file 'gfpgan.egg-info/SOURCES.txt'\n",
            "reading manifest file 'gfpgan.egg-info/SOURCES.txt'\n",
            "reading manifest template 'MANIFEST.in'\n",
            "warning: no files found matching 'inputs/*'\n",
            "adding license file 'LICENSE'\n",
            "writing manifest file 'gfpgan.egg-info/SOURCES.txt'\n",
            "running build_ext\n",
            "Creating /usr/local/lib/python3.9/dist-packages/gfpgan.egg-link (link to .)\n",
            "Adding gfpgan 1.3.8 to easy-install.pth file\n",
            "\n",
            "Installed /content/deepfake-dubbing/GFPGAN\n",
            "Processing dependencies for gfpgan==1.3.8\n",
            "Searching for yapf\n",
            "Reading https://pypi.org/simple/yapf/\n",
            "Downloading https://files.pythonhosted.org/packages/47/88/843c2e68f18a5879b4fbf37cb99fbabe1ffc4343b2e63191c8462235c008/yapf-0.32.0-py2.py3-none-any.whl#sha256=8fea849025584e486fd06d6ba2bed717f396080fd3cc236ba10cb97c4c51cf32\n",
            "Best match: yapf 0.32.0\n",
            "Processing yapf-0.32.0-py2.py3-none-any.whl\n",
            "Installing yapf-0.32.0-py2.py3-none-any.whl to /usr/local/lib/python3.9/dist-packages\n",
            "Adding yapf 0.32.0 to easy-install.pth file\n",
            "Installing yapf script to /usr/local/bin\n",
            "Installing yapf-diff script to /usr/local/bin\n",
            "\n",
            "Installed /usr/local/lib/python3.9/dist-packages/yapf-0.32.0-py3.9.egg\n",
            "Searching for tb-nightly\n",
            "Reading https://pypi.org/simple/tb-nightly/\n",
            "Downloading https://files.pythonhosted.org/packages/f3/75/bbdfaae2cb7d64c44bff712c668b51c528ed18a717e66a3c7401c15a4dc9/tb_nightly-2.13.0a20230414-py3-none-any.whl#sha256=e7e22ffd98a2e0ad648e787479504f0278d10e15d6926405b6f317a3a2bbfb13\n",
            "Best match: tb-nightly 2.13.0a20230414\n",
            "Processing tb_nightly-2.13.0a20230414-py3-none-any.whl\n",
            "Installing tb_nightly-2.13.0a20230414-py3-none-any.whl to /usr/local/lib/python3.9/dist-packages\n",
            "Adding tb-nightly 2.13.0a20230414 to easy-install.pth file\n",
            "Installing tensorboard script to /usr/local/bin\n",
            "\n",
            "Installed /usr/local/lib/python3.9/dist-packages/tb_nightly-2.13.0a20230414-py3.9.egg\n",
            "Searching for lmdb\n",
            "Reading https://pypi.org/simple/lmdb/\n",
            "Downloading https://files.pythonhosted.org/packages/58/f5/fc9c65defcafa1094059ece7f0fd57a7e7e7097d9b9bae26434744f453ab/lmdb-1.4.1-cp39-cp39-manylinux_2_17_x86_64.manylinux2014_x86_64.whl#sha256=7ba5d78b0ff130b38a56b7161ceb7e27ba4364d827d2bbb251c24b06c28c64cd\n",
            "Best match: lmdb 1.4.1\n",
            "Processing lmdb-1.4.1-cp39-cp39-manylinux_2_17_x86_64.manylinux2014_x86_64.whl\n",
            "Installing lmdb-1.4.1-cp39-cp39-manylinux_2_17_x86_64.manylinux2014_x86_64.whl to /usr/local/lib/python3.9/dist-packages\n",
            "Adding lmdb 1.4.1 to easy-install.pth file\n",
            "\n",
            "Installed /usr/local/lib/python3.9/dist-packages/lmdb-1.4.1-py3.9-linux-x86_64.egg\n",
            "Searching for facexlib>=0.2.5\n",
            "Reading https://pypi.org/simple/facexlib/\n",
            "Downloading https://files.pythonhosted.org/packages/36/7b/2147339dafe1c4800514c9c21ee4444f8b419ce51dfc7695220a8e0069a6/facexlib-0.3.0-py3-none-any.whl#sha256=245d58861537b820c616e8b3ef618ccfad2a24724a2d74be2b0542643c01a878\n",
            "Best match: facexlib 0.3.0\n",
            "Processing facexlib-0.3.0-py3-none-any.whl\n",
            "Installing facexlib-0.3.0-py3-none-any.whl to /usr/local/lib/python3.9/dist-packages\n",
            "Adding facexlib 0.3.0 to easy-install.pth file\n",
            "\n",
            "Installed /usr/local/lib/python3.9/dist-packages/facexlib-0.3.0-py3.9.egg\n",
            "Searching for basicsr>=1.4.2\n",
            "Reading https://pypi.org/simple/basicsr/\n",
            "Downloading https://files.pythonhosted.org/packages/86/41/00a6b000f222f0fa4c6d9e1d6dcc9811a374cabb8abb9d408b77de39648c/basicsr-1.4.2.tar.gz#sha256=b89b595a87ef964cda9913b4d99380ddb6554c965577c0c10cb7b78e31301e87\n",
            "Best match: basicsr 1.4.2\n",
            "Processing basicsr-1.4.2.tar.gz\n",
            "Writing /tmp/easy_install-2h7jjyyt/basicsr-1.4.2/setup.cfg\n",
            "Running basicsr-1.4.2/setup.py -q bdist_egg --dist-dir /tmp/easy_install-2h7jjyyt/basicsr-1.4.2/egg-dist-tmp-7jers738\n",
            "/usr/local/lib/python3.9/dist-packages/setuptools/__init__.py:85: _DeprecatedInstaller: setuptools.installer and fetch_build_eggs are deprecated. Requirements should be satisfied by a PEP 517 installer. If you are using pip, you can try `pip install --use-pep517`.\n",
            "  dist.fetch_build_eggs(dist.setup_requires)\n",
            "/usr/local/lib/python3.9/dist-packages/setuptools/command/install.py:34: SetuptoolsDeprecationWarning: setup.py install is deprecated. Use build and pip and other standards-based tools.\n",
            "  warnings.warn(\n",
            "/usr/local/lib/python3.9/dist-packages/setuptools/command/build_py.py:202: SetuptoolsDeprecationWarning:     Installing 'basicsr.ops.dcn.src' as data is deprecated, please list it in `packages`.\n",
            "    !!\n",
            "\n",
            "\n",
            "    ############################\n",
            "    # Package would be ignored #\n",
            "    ############################\n",
            "    Python recognizes 'basicsr.ops.dcn.src' as an importable package,\n",
            "    but it is not listed in the `packages` configuration of setuptools.\n",
            "\n",
            "    'basicsr.ops.dcn.src' has been automatically added to the distribution only\n",
            "    because it may contain data files, but this behavior is likely to change\n",
            "    in future versions of setuptools (and therefore is considered deprecated).\n",
            "\n",
            "    Please make sure that 'basicsr.ops.dcn.src' is included as a package by using\n",
            "    the `packages` configuration field or the proper discovery methods\n",
            "    (for example by using `find_namespace_packages(...)`/`find_namespace:`\n",
            "    instead of `find_packages(...)`/`find:`).\n",
            "\n",
            "    You can read more about \"package discovery\" and \"data files\" on setuptools\n",
            "    documentation page.\n",
            "\n",
            "\n",
            "!!\n",
            "\n",
            "  check.warn(importable)\n",
            "/usr/local/lib/python3.9/dist-packages/setuptools/command/build_py.py:202: SetuptoolsDeprecationWarning:     Installing 'basicsr.ops.fused_act.src' as data is deprecated, please list it in `packages`.\n",
            "    !!\n",
            "\n",
            "\n",
            "    ############################\n",
            "    # Package would be ignored #\n",
            "    ############################\n",
            "    Python recognizes 'basicsr.ops.fused_act.src' as an importable package,\n",
            "    but it is not listed in the `packages` configuration of setuptools.\n",
            "\n",
            "    'basicsr.ops.fused_act.src' has been automatically added to the distribution only\n",
            "    because it may contain data files, but this behavior is likely to change\n",
            "    in future versions of setuptools (and therefore is considered deprecated).\n",
            "\n",
            "    Please make sure that 'basicsr.ops.fused_act.src' is included as a package by using\n",
            "    the `packages` configuration field or the proper discovery methods\n",
            "    (for example by using `find_namespace_packages(...)`/`find_namespace:`\n",
            "    instead of `find_packages(...)`/`find:`).\n",
            "\n",
            "    You can read more about \"package discovery\" and \"data files\" on setuptools\n",
            "    documentation page.\n",
            "\n",
            "\n",
            "!!\n",
            "\n",
            "  check.warn(importable)\n",
            "/usr/local/lib/python3.9/dist-packages/setuptools/command/build_py.py:202: SetuptoolsDeprecationWarning:     Installing 'basicsr.ops.upfirdn2d.src' as data is deprecated, please list it in `packages`.\n",
            "    !!\n",
            "\n",
            "\n",
            "    ############################\n",
            "    # Package would be ignored #\n",
            "    ############################\n",
            "    Python recognizes 'basicsr.ops.upfirdn2d.src' as an importable package,\n",
            "    but it is not listed in the `packages` configuration of setuptools.\n",
            "\n",
            "    'basicsr.ops.upfirdn2d.src' has been automatically added to the distribution only\n",
            "    because it may contain data files, but this behavior is likely to change\n",
            "    in future versions of setuptools (and therefore is considered deprecated).\n",
            "\n",
            "    Please make sure that 'basicsr.ops.upfirdn2d.src' is included as a package by using\n",
            "    the `packages` configuration field or the proper discovery methods\n",
            "    (for example by using `find_namespace_packages(...)`/`find_namespace:`\n",
            "    instead of `find_packages(...)`/`find:`).\n",
            "\n",
            "    You can read more about \"package discovery\" and \"data files\" on setuptools\n",
            "    documentation page.\n",
            "\n",
            "\n",
            "!!\n",
            "\n",
            "  check.warn(importable)\n",
            "creating /usr/local/lib/python3.9/dist-packages/basicsr-1.4.2-py3.9.egg\n",
            "Extracting basicsr-1.4.2-py3.9.egg to /usr/local/lib/python3.9/dist-packages\n",
            "Adding basicsr 1.4.2 to easy-install.pth file\n",
            "\n",
            "Installed /usr/local/lib/python3.9/dist-packages/basicsr-1.4.2-py3.9.egg\n",
            "Searching for filterpy\n",
            "Reading https://pypi.org/simple/filterpy/\n",
            "Downloading https://files.pythonhosted.org/packages/f6/1d/ac8914360460fafa1990890259b7fa5ef7ba4cd59014e782e4ab3ab144d8/filterpy-1.4.5.zip#sha256=4f2a4d39e4ea601b9ab42b2db08b5918a9538c168cff1c6895ae26646f3d73b1\n",
            "Best match: filterpy 1.4.5\n",
            "Processing filterpy-1.4.5.zip\n",
            "Writing /tmp/easy_install-_dxysaf1/filterpy-1.4.5/setup.cfg\n",
            "Running filterpy-1.4.5/setup.py -q bdist_egg --dist-dir /tmp/easy_install-_dxysaf1/filterpy-1.4.5/egg-dist-tmp-_m1h1v_8\n",
            "/usr/local/lib/python3.9/dist-packages/setuptools/dist.py:788: UserWarning: Usage of dash-separated 'description-file' will not be supported in future versions. Please use the underscore name 'description_file' instead\n",
            "  warnings.warn(\n",
            "warning: no files found matching '*.py' under directory 'filterpy/monte_carlo/tests'\n",
            "/usr/local/lib/python3.9/dist-packages/setuptools/command/install.py:34: SetuptoolsDeprecationWarning: setup.py install is deprecated. Use build and pip and other standards-based tools.\n",
            "  warnings.warn(\n",
            "zip_safe flag not set; analyzing archive contents...\n",
            "Moving filterpy-1.4.5-py3.9.egg to /usr/local/lib/python3.9/dist-packages\n",
            "Adding filterpy 1.4.5 to easy-install.pth file\n",
            "\n",
            "Installed /usr/local/lib/python3.9/dist-packages/filterpy-1.4.5-py3.9.egg\n",
            "Searching for addict\n",
            "Reading https://pypi.org/simple/addict/\n",
            "Downloading https://files.pythonhosted.org/packages/6a/00/b08f23b7d7e1e14ce01419a467b583edbb93c6cdb8654e54a9cc579cd61f/addict-2.4.0-py3-none-any.whl#sha256=249bb56bbfd3cdc2a004ea0ff4c2b6ddc84d53bc2194761636eb314d5cfa5dfc\n",
            "Best match: addict 2.4.0\n",
            "Processing addict-2.4.0-py3-none-any.whl\n",
            "Installing addict-2.4.0-py3-none-any.whl to /usr/local/lib/python3.9/dist-packages\n",
            "Adding addict 2.4.0 to easy-install.pth file\n",
            "\n",
            "Installed /usr/local/lib/python3.9/dist-packages/addict-2.4.0-py3.9.egg\n",
            "Searching for tqdm==4.65.0\n",
            "Best match: tqdm 4.65.0\n",
            "Adding tqdm 4.65.0 to easy-install.pth file\n",
            "Installing tqdm script to /usr/local/bin\n",
            "\n",
            "Using /usr/local/lib/python3.9/dist-packages\n",
            "Searching for torchvision==0.15.1+cu118\n",
            "Best match: torchvision 0.15.1+cu118\n",
            "Adding torchvision 0.15.1+cu118 to easy-install.pth file\n",
            "\n",
            "Using /usr/local/lib/python3.9/dist-packages\n",
            "Searching for torch==2.0.0+cu118\n",
            "Best match: torch 2.0.0+cu118\n",
            "Adding torch 2.0.0+cu118 to easy-install.pth file\n",
            "Installing convert-caffe2-to-onnx script to /usr/local/bin\n",
            "Installing convert-onnx-to-caffe2 script to /usr/local/bin\n",
            "Installing torchrun script to /usr/local/bin\n",
            "\n",
            "Using /usr/local/lib/python3.9/dist-packages\n",
            "Searching for scipy==1.10.1\n",
            "Best match: scipy 1.10.1\n",
            "Adding scipy 1.10.1 to easy-install.pth file\n",
            "\n",
            "Using /usr/local/lib/python3.9/dist-packages\n",
            "Searching for PyYAML==6.0\n",
            "Best match: PyYAML 6.0\n",
            "Adding PyYAML 6.0 to easy-install.pth file\n",
            "\n",
            "Using /usr/local/lib/python3.9/dist-packages\n",
            "Searching for opencv-python==4.7.0.72\n",
            "Best match: opencv-python 4.7.0.72\n",
            "Adding opencv-python 4.7.0.72 to easy-install.pth file\n",
            "\n",
            "Using /usr/local/lib/python3.9/dist-packages\n",
            "Searching for numpy==1.22.4\n",
            "Best match: numpy 1.22.4\n",
            "Adding numpy 1.22.4 to easy-install.pth file\n",
            "Installing f2py script to /usr/local/bin\n",
            "Installing f2py3 script to /usr/local/bin\n",
            "Installing f2py3.9 script to /usr/local/bin\n",
            "\n",
            "Using /usr/local/lib/python3.9/dist-packages\n",
            "Searching for Pillow==8.4.0\n",
            "Best match: Pillow 8.4.0\n",
            "Adding Pillow 8.4.0 to easy-install.pth file\n",
            "\n",
            "Using /usr/local/lib/python3.9/dist-packages\n",
            "Searching for requests==2.27.1\n",
            "Best match: requests 2.27.1\n",
            "Adding requests 2.27.1 to easy-install.pth file\n",
            "\n",
            "Using /usr/local/lib/python3.9/dist-packages\n",
            "Searching for triton==2.0.0\n",
            "Best match: triton 2.0.0\n",
            "Adding triton 2.0.0 to easy-install.pth file\n",
            "\n",
            "Using /usr/local/lib/python3.9/dist-packages\n",
            "Searching for Jinja2==3.1.2\n",
            "Best match: Jinja2 3.1.2\n",
            "Adding Jinja2 3.1.2 to easy-install.pth file\n",
            "\n",
            "Using /usr/local/lib/python3.9/dist-packages\n",
            "Searching for networkx==3.1\n",
            "Best match: networkx 3.1\n",
            "Adding networkx 3.1 to easy-install.pth file\n",
            "\n",
            "Using /usr/local/lib/python3.9/dist-packages\n",
            "Searching for sympy==1.11.1\n",
            "Best match: sympy 1.11.1\n",
            "Adding sympy 1.11.1 to easy-install.pth file\n",
            "Installing isympy script to /usr/local/bin\n",
            "\n",
            "Using /usr/local/lib/python3.9/dist-packages\n",
            "Searching for typing-extensions==4.5.0\n",
            "Best match: typing-extensions 4.5.0\n",
            "Adding typing-extensions 4.5.0 to easy-install.pth file\n",
            "\n",
            "Using /usr/local/lib/python3.9/dist-packages\n",
            "Searching for filelock==3.11.0\n",
            "Best match: filelock 3.11.0\n",
            "Adding filelock 3.11.0 to easy-install.pth file\n",
            "\n",
            "Using /usr/local/lib/python3.9/dist-packages\n",
            "Searching for wheel==0.40.0\n",
            "Best match: wheel 0.40.0\n",
            "Adding wheel 0.40.0 to easy-install.pth file\n",
            "Installing wheel script to /usr/local/bin\n",
            "\n",
            "Using /usr/local/lib/python3.9/dist-packages\n",
            "Searching for Werkzeug==2.2.3\n",
            "Best match: Werkzeug 2.2.3\n",
            "Adding Werkzeug 2.2.3 to easy-install.pth file\n",
            "\n",
            "Using /usr/local/lib/python3.9/dist-packages\n",
            "Searching for tensorboard-plugin-wit==1.8.1\n",
            "Best match: tensorboard-plugin-wit 1.8.1\n",
            "Adding tensorboard-plugin-wit 1.8.1 to easy-install.pth file\n",
            "\n",
            "Using /usr/local/lib/python3.9/dist-packages\n",
            "Searching for tensorboard-data-server==0.7.0\n",
            "Best match: tensorboard-data-server 0.7.0\n",
            "Adding tensorboard-data-server 0.7.0 to easy-install.pth file\n",
            "\n",
            "Using /usr/local/lib/python3.9/dist-packages\n",
            "Searching for setuptools==67.6.1\n",
            "Best match: setuptools 67.6.1\n",
            "Adding setuptools 67.6.1 to easy-install.pth file\n",
            "\n",
            "Using /usr/local/lib/python3.9/dist-packages\n",
            "Searching for protobuf==3.20.3\n",
            "Best match: protobuf 3.20.3\n",
            "Adding protobuf 3.20.3 to easy-install.pth file\n",
            "\n",
            "Using /usr/local/lib/python3.9/dist-packages\n",
            "Searching for Markdown==3.4.3\n",
            "Best match: Markdown 3.4.3\n",
            "Adding Markdown 3.4.3 to easy-install.pth file\n",
            "Installing markdown_py script to /usr/local/bin\n",
            "\n",
            "Using /usr/local/lib/python3.9/dist-packages\n",
            "Searching for google-auth-oauthlib==1.0.0\n",
            "Best match: google-auth-oauthlib 1.0.0\n",
            "Adding google-auth-oauthlib 1.0.0 to easy-install.pth file\n",
            "Installing google-oauthlib-tool script to /usr/local/bin\n",
            "\n",
            "Using /usr/local/lib/python3.9/dist-packages\n",
            "Searching for google-auth==2.17.2\n",
            "Best match: google-auth 2.17.2\n",
            "Adding google-auth 2.17.2 to easy-install.pth file\n",
            "\n",
            "Using /usr/local/lib/python3.9/dist-packages\n",
            "Searching for grpcio==1.53.0\n",
            "Best match: grpcio 1.53.0\n",
            "Adding grpcio 1.53.0 to easy-install.pth file\n",
            "\n",
            "Using /usr/local/lib/python3.9/dist-packages\n",
            "Searching for absl-py==1.4.0\n",
            "Best match: absl-py 1.4.0\n",
            "Adding absl-py 1.4.0 to easy-install.pth file\n",
            "\n",
            "Using /usr/local/lib/python3.9/dist-packages\n",
            "Searching for numba==0.56.4\n",
            "Best match: numba 0.56.4\n",
            "Adding numba 0.56.4 to easy-install.pth file\n",
            "\n",
            "Using /usr/local/lib/python3.9/dist-packages\n",
            "Searching for scikit-image==0.19.3\n",
            "Best match: scikit-image 0.19.3\n",
            "Adding scikit-image 0.19.3 to easy-install.pth file\n",
            "Installing skivi script to /usr/local/bin\n",
            "\n",
            "Using /usr/local/lib/python3.9/dist-packages\n",
            "Searching for future==0.18.3\n",
            "Best match: future 0.18.3\n",
            "Adding future 0.18.3 to easy-install.pth file\n",
            "Installing futurize script to /usr/local/bin\n",
            "Installing pasteurize script to /usr/local/bin\n",
            "\n",
            "Using /usr/local/lib/python3.9/dist-packages\n",
            "Searching for idna==3.4\n",
            "Best match: idna 3.4\n",
            "Adding idna 3.4 to easy-install.pth file\n",
            "\n",
            "Using /usr/local/lib/python3.9/dist-packages\n",
            "Searching for charset-normalizer==2.0.12\n",
            "Best match: charset-normalizer 2.0.12\n",
            "Adding charset-normalizer 2.0.12 to easy-install.pth file\n",
            "Installing normalizer script to /usr/local/bin\n",
            "\n",
            "Using /usr/local/lib/python3.9/dist-packages\n",
            "Searching for certifi==2022.12.7\n",
            "Best match: certifi 2022.12.7\n",
            "Adding certifi 2022.12.7 to easy-install.pth file\n",
            "\n",
            "Using /usr/local/lib/python3.9/dist-packages\n",
            "Searching for urllib3==1.26.15\n",
            "Best match: urllib3 1.26.15\n",
            "Adding urllib3 1.26.15 to easy-install.pth file\n",
            "\n",
            "Using /usr/local/lib/python3.9/dist-packages\n",
            "Searching for lit==16.0.1\n",
            "Best match: lit 16.0.1\n",
            "Adding lit 16.0.1 to easy-install.pth file\n",
            "Installing lit script to /usr/local/bin\n",
            "\n",
            "Using /usr/local/lib/python3.9/dist-packages\n",
            "Searching for cmake==3.25.2\n",
            "Best match: cmake 3.25.2\n",
            "Adding cmake 3.25.2 to easy-install.pth file\n",
            "Installing cmake script to /usr/local/bin\n",
            "Installing cpack script to /usr/local/bin\n",
            "Installing ctest script to /usr/local/bin\n",
            "\n",
            "Using /usr/local/lib/python3.9/dist-packages\n",
            "Searching for MarkupSafe==2.1.2\n",
            "Best match: MarkupSafe 2.1.2\n",
            "Adding MarkupSafe 2.1.2 to easy-install.pth file\n",
            "\n",
            "Using /usr/local/lib/python3.9/dist-packages\n",
            "Searching for mpmath==1.3.0\n",
            "Best match: mpmath 1.3.0\n",
            "Adding mpmath 1.3.0 to easy-install.pth file\n",
            "\n",
            "Using /usr/local/lib/python3.9/dist-packages\n",
            "Searching for importlib-metadata==6.3.0\n",
            "Best match: importlib-metadata 6.3.0\n",
            "Adding importlib-metadata 6.3.0 to easy-install.pth file\n",
            "\n",
            "Using /usr/local/lib/python3.9/dist-packages\n",
            "Searching for requests-oauthlib==1.3.1\n",
            "Best match: requests-oauthlib 1.3.1\n",
            "Adding requests-oauthlib 1.3.1 to easy-install.pth file\n",
            "\n",
            "Using /usr/local/lib/python3.9/dist-packages\n",
            "Searching for rsa==4.9\n",
            "Best match: rsa 4.9\n",
            "Adding rsa 4.9 to easy-install.pth file\n",
            "Installing pyrsa-decrypt script to /usr/local/bin\n",
            "Installing pyrsa-encrypt script to /usr/local/bin\n",
            "Installing pyrsa-keygen script to /usr/local/bin\n",
            "Installing pyrsa-priv2pub script to /usr/local/bin\n",
            "Installing pyrsa-sign script to /usr/local/bin\n",
            "Installing pyrsa-verify script to /usr/local/bin\n",
            "\n",
            "Using /usr/local/lib/python3.9/dist-packages\n",
            "Searching for six==1.16.0\n",
            "Best match: six 1.16.0\n",
            "Adding six 1.16.0 to easy-install.pth file\n",
            "\n",
            "Using /usr/local/lib/python3.9/dist-packages\n",
            "Searching for pyasn1-modules==0.2.8\n",
            "Best match: pyasn1-modules 0.2.8\n",
            "Adding pyasn1-modules 0.2.8 to easy-install.pth file\n",
            "\n",
            "Using /usr/local/lib/python3.9/dist-packages\n",
            "Searching for cachetools==5.3.0\n",
            "Best match: cachetools 5.3.0\n",
            "Adding cachetools 5.3.0 to easy-install.pth file\n",
            "\n",
            "Using /usr/local/lib/python3.9/dist-packages\n",
            "Searching for llvmlite==0.39.1\n",
            "Best match: llvmlite 0.39.1\n",
            "Adding llvmlite 0.39.1 to easy-install.pth file\n",
            "\n",
            "Using /usr/local/lib/python3.9/dist-packages\n",
            "Searching for matplotlib==3.7.1\n",
            "Best match: matplotlib 3.7.1\n",
            "Adding matplotlib 3.7.1 to easy-install.pth file\n",
            "\n",
            "Using /usr/local/lib/python3.9/dist-packages\n",
            "Searching for packaging==23.0\n",
            "Best match: packaging 23.0\n",
            "Adding packaging 23.0 to easy-install.pth file\n",
            "\n",
            "Using /usr/local/lib/python3.9/dist-packages\n",
            "Searching for PyWavelets==1.4.1\n",
            "Best match: PyWavelets 1.4.1\n",
            "Adding PyWavelets 1.4.1 to easy-install.pth file\n",
            "\n",
            "Using /usr/local/lib/python3.9/dist-packages\n",
            "Searching for tifffile==2023.3.21\n",
            "Best match: tifffile 2023.3.21\n",
            "Adding tifffile 2023.3.21 to easy-install.pth file\n",
            "Installing lsm2bin script to /usr/local/bin\n",
            "Installing tiff2fsspec script to /usr/local/bin\n",
            "Installing tiffcomment script to /usr/local/bin\n",
            "Installing tifffile script to /usr/local/bin\n",
            "\n",
            "Using /usr/local/lib/python3.9/dist-packages\n",
            "Searching for imageio==2.25.1\n",
            "Best match: imageio 2.25.1\n",
            "Adding imageio 2.25.1 to easy-install.pth file\n",
            "Installing imageio_download_bin script to /usr/local/bin\n",
            "Installing imageio_remove_bin script to /usr/local/bin\n",
            "\n",
            "Using /usr/local/lib/python3.9/dist-packages\n",
            "Searching for zipp==3.15.0\n",
            "Best match: zipp 3.15.0\n",
            "Adding zipp 3.15.0 to easy-install.pth file\n",
            "\n",
            "Using /usr/local/lib/python3.9/dist-packages\n",
            "Searching for oauthlib==3.2.2\n",
            "Best match: oauthlib 3.2.2\n",
            "Adding oauthlib 3.2.2 to easy-install.pth file\n",
            "\n",
            "Using /usr/local/lib/python3.9/dist-packages\n",
            "Searching for pyasn1==0.4.8\n",
            "Best match: pyasn1 0.4.8\n",
            "Adding pyasn1 0.4.8 to easy-install.pth file\n",
            "\n",
            "Using /usr/local/lib/python3.9/dist-packages\n",
            "Searching for importlib-resources==5.12.0\n",
            "Best match: importlib-resources 5.12.0\n",
            "Adding importlib-resources 5.12.0 to easy-install.pth file\n",
            "\n",
            "Using /usr/local/lib/python3.9/dist-packages\n",
            "Searching for python-dateutil==2.8.2\n",
            "Best match: python-dateutil 2.8.2\n",
            "Adding python-dateutil 2.8.2 to easy-install.pth file\n",
            "\n",
            "Using /usr/local/lib/python3.9/dist-packages\n",
            "Searching for pyparsing==3.0.9\n",
            "Best match: pyparsing 3.0.9\n",
            "Adding pyparsing 3.0.9 to easy-install.pth file\n",
            "\n",
            "Using /usr/local/lib/python3.9/dist-packages\n",
            "Searching for kiwisolver==1.4.4\n",
            "Best match: kiwisolver 1.4.4\n",
            "Adding kiwisolver 1.4.4 to easy-install.pth file\n",
            "\n",
            "Using /usr/local/lib/python3.9/dist-packages\n",
            "Searching for fonttools==4.39.3\n",
            "Best match: fonttools 4.39.3\n",
            "Adding fonttools 4.39.3 to easy-install.pth file\n",
            "Installing fonttools script to /usr/local/bin\n",
            "Installing pyftmerge script to /usr/local/bin\n",
            "Installing pyftsubset script to /usr/local/bin\n",
            "Installing ttx script to /usr/local/bin\n",
            "\n",
            "Using /usr/local/lib/python3.9/dist-packages\n",
            "Searching for cycler==0.11.0\n",
            "Best match: cycler 0.11.0\n",
            "Adding cycler 0.11.0 to easy-install.pth file\n",
            "\n",
            "Using /usr/local/lib/python3.9/dist-packages\n",
            "Searching for contourpy==1.0.7\n",
            "Best match: contourpy 1.0.7\n",
            "Adding contourpy 1.0.7 to easy-install.pth file\n",
            "\n",
            "Using /usr/local/lib/python3.9/dist-packages\n",
            "Finished processing dependencies for gfpgan==1.3.8\n",
            "--2023-04-17 18:21:18--  https://github.com/TencentARC/GFPGAN/releases/download/v1.3.0/GFPGANv1.3.pth\n",
            "Resolving github.com (github.com)... 140.82.113.4\n",
            "Connecting to github.com (github.com)|140.82.113.4|:443... connected.\n",
            "HTTP request sent, awaiting response... 302 Found\n",
            "Location: https://objects.githubusercontent.com/github-production-release-asset-2e65be/349321229/e9847322-b8b1-4ec2-9620-5146eb8a9e4b?X-Amz-Algorithm=AWS4-HMAC-SHA256&X-Amz-Credential=AKIAIWNJYAX4CSVEH53A%2F20230417%2Fus-east-1%2Fs3%2Faws4_request&X-Amz-Date=20230417T182000Z&X-Amz-Expires=300&X-Amz-Signature=7292663d93d55e51c66425f4dab0fd791c3972ebea8f9f395a6bb0af42c8f22b&X-Amz-SignedHeaders=host&actor_id=0&key_id=0&repo_id=349321229&response-content-disposition=attachment%3B%20filename%3DGFPGANv1.3.pth&response-content-type=application%2Foctet-stream [following]\n",
            "--2023-04-17 18:21:18--  https://objects.githubusercontent.com/github-production-release-asset-2e65be/349321229/e9847322-b8b1-4ec2-9620-5146eb8a9e4b?X-Amz-Algorithm=AWS4-HMAC-SHA256&X-Amz-Credential=AKIAIWNJYAX4CSVEH53A%2F20230417%2Fus-east-1%2Fs3%2Faws4_request&X-Amz-Date=20230417T182000Z&X-Amz-Expires=300&X-Amz-Signature=7292663d93d55e51c66425f4dab0fd791c3972ebea8f9f395a6bb0af42c8f22b&X-Amz-SignedHeaders=host&actor_id=0&key_id=0&repo_id=349321229&response-content-disposition=attachment%3B%20filename%3DGFPGANv1.3.pth&response-content-type=application%2Foctet-stream\n",
            "Resolving objects.githubusercontent.com (objects.githubusercontent.com)... 185.199.108.133, 185.199.109.133, 185.199.110.133, ...\n",
            "Connecting to objects.githubusercontent.com (objects.githubusercontent.com)|185.199.108.133|:443... connected.\n",
            "HTTP request sent, awaiting response... 200 OK\n",
            "Length: 348632874 (332M) [application/octet-stream]\n",
            "Saving to: GFPGAN/experiments/pretrained_models/GFPGANv1.3.pth\n",
            "\n",
            "GFPGANv1.3.pth      100%[===================>] 332.48M   241MB/s    in 1.4s    \n",
            "\n",
            "2023-04-17 18:21:20 (241 MB/s) - GFPGAN/experiments/pretrained_models/GFPGANv1.3.pth saved [348632874/348632874]\n",
            "\n"
          ]
        }
      ],
      "source": [
        "\n",
        "!cd $gfpganFolderName && python setup.py develop\n",
        "!wget https://github.com/TencentARC/GFPGAN/releases/download/v1.3.0/GFPGANv1.3.pth -P {gfpganFolderName}'/experiments/pretrained_models'"
      ]
    },
    {
      "cell_type": "code",
      "execution_count": null,
      "metadata": {
        "colab": {
          "base_uri": "https://localhost:8080/"
        },
        "id": "pNFxKQzbHXTh",
        "outputId": "e0360ea6-cd03-40b7-b7e3-a91e0a33a386"
      },
      "outputs": [
        {
          "name": "stdout",
          "output_type": "stream",
          "text": [
            "FPS:  30.0 Frames:  275\n"
          ]
        },
        {
          "name": "stderr",
          "output_type": "stream",
          "text": [
            "100%|| 275/275 [00:01<00:00, 177.00it/s]\n"
          ]
        }
      ],
      "source": [
        "import cv2\n",
        "from tqdm import tqdm\n",
        "from os import path\n",
        "\n",
        "import os\n",
        "\n",
        "wav2LipVideoPath = basePath+'/outputs/result.mp4'\n",
        "outputPath = basePath+'/outputs'\n",
        "unProcessedFramesFolderPath = outputPath+'/frames'\n",
        "\n",
        "if not os.path.exists(unProcessedFramesFolderPath):\n",
        "  os.makedirs(unProcessedFramesFolderPath)\n",
        "\n",
        "vidcap = cv2.VideoCapture(wav2LipVideoPath)\n",
        "numberOfFrames = int(vidcap.get(cv2.CAP_PROP_FRAME_COUNT))\n",
        "fps = vidcap.get(cv2.CAP_PROP_FPS)\n",
        "print(\"FPS: \", fps, \"Frames: \", numberOfFrames)\n",
        "\n",
        "for frameNumber in tqdm(range(numberOfFrames)):\n",
        "    _,image = vidcap.read()\n",
        "    cv2.imwrite(path.join(unProcessedFramesFolderPath, str(frameNumber).zfill(4)+'.jpg'), image)"
      ]
    },
    {
      "cell_type": "code",
      "execution_count": null,
      "metadata": {
        "colab": {
          "base_uri": "https://localhost:8080/"
        },
        "id": "FfC5lJeLHZwE",
        "outputId": "6660e498-fffa-497c-93f6-82eded156c1d"
      },
      "outputs": [
        {
          "name": "stdout",
          "output_type": "stream",
          "text": [
            "/usr/local/lib/python3.9/dist-packages/torchvision/transforms/functional_tensor.py:5: UserWarning: The torchvision.transforms.functional_tensor module is deprecated in 0.15 and will be **removed in 0.17**. Please don't rely on it. You probably just need to use APIs in torchvision.transforms.functional or in torchvision.transforms.v2.functional.\n",
            "  warnings.warn(\n",
            "/usr/local/lib/python3.9/dist-packages/torchvision/models/_utils.py:208: UserWarning: The parameter 'pretrained' is deprecated since 0.13 and may be removed in the future, please use 'weights' instead.\n",
            "  warnings.warn(\n",
            "/usr/local/lib/python3.9/dist-packages/torchvision/models/_utils.py:223: UserWarning: Arguments other than a weight enum or `None` for 'weights' are deprecated since 0.13 and may be removed in the future. The current behavior is equivalent to passing `weights=None`.\n",
            "  warnings.warn(msg)\n",
            "Downloading: \"https://github.com/xinntao/facexlib/releases/download/v0.1.0/detection_Resnet50_Final.pth\" to /content/deepfake-dubbing/GFPGAN/gfpgan/weights/detection_Resnet50_Final.pth\n",
            "\n",
            "100% 104M/104M [00:00<00:00, 239MB/s] \n",
            "Downloading: \"https://github.com/xinntao/facexlib/releases/download/v0.2.2/parsing_parsenet.pth\" to /content/deepfake-dubbing/GFPGAN/gfpgan/weights/parsing_parsenet.pth\n",
            "\n",
            "100% 81.4M/81.4M [00:00<00:00, 186MB/s]\n",
            "Processing 0000.jpg ...\n",
            "Processing 0001.jpg ...\n",
            "Processing 0002.jpg ...\n",
            "Processing 0003.jpg ...\n",
            "Processing 0004.jpg ...\n",
            "Processing 0005.jpg ...\n",
            "Processing 0006.jpg ...\n",
            "Processing 0007.jpg ...\n",
            "Processing 0008.jpg ...\n",
            "Processing 0009.jpg ...\n",
            "Processing 0010.jpg ...\n",
            "Processing 0011.jpg ...\n",
            "Processing 0012.jpg ...\n",
            "Processing 0013.jpg ...\n",
            "Processing 0014.jpg ...\n",
            "Processing 0015.jpg ...\n",
            "Processing 0016.jpg ...\n",
            "Processing 0017.jpg ...\n",
            "Processing 0018.jpg ...\n",
            "Processing 0019.jpg ...\n",
            "Processing 0020.jpg ...\n",
            "Processing 0021.jpg ...\n",
            "Processing 0022.jpg ...\n",
            "Processing 0023.jpg ...\n",
            "Processing 0024.jpg ...\n",
            "Processing 0025.jpg ...\n",
            "Processing 0026.jpg ...\n",
            "Processing 0027.jpg ...\n",
            "Processing 0028.jpg ...\n",
            "Processing 0029.jpg ...\n",
            "Processing 0030.jpg ...\n",
            "Processing 0031.jpg ...\n",
            "Processing 0032.jpg ...\n",
            "Processing 0033.jpg ...\n",
            "Processing 0034.jpg ...\n",
            "Processing 0035.jpg ...\n",
            "Processing 0036.jpg ...\n",
            "Processing 0037.jpg ...\n",
            "Processing 0038.jpg ...\n",
            "Processing 0039.jpg ...\n",
            "Processing 0040.jpg ...\n",
            "Processing 0041.jpg ...\n",
            "Processing 0042.jpg ...\n",
            "Processing 0043.jpg ...\n",
            "Processing 0044.jpg ...\n",
            "Processing 0045.jpg ...\n",
            "Processing 0046.jpg ...\n",
            "Processing 0047.jpg ...\n",
            "Processing 0048.jpg ...\n",
            "Processing 0049.jpg ...\n",
            "Processing 0050.jpg ...\n",
            "Processing 0051.jpg ...\n",
            "Processing 0052.jpg ...\n",
            "Processing 0053.jpg ...\n",
            "Processing 0054.jpg ...\n",
            "Processing 0055.jpg ...\n",
            "Processing 0056.jpg ...\n",
            "Processing 0057.jpg ...\n",
            "Processing 0058.jpg ...\n",
            "Processing 0059.jpg ...\n",
            "Processing 0060.jpg ...\n",
            "Processing 0061.jpg ...\n",
            "Processing 0062.jpg ...\n",
            "Processing 0063.jpg ...\n",
            "Processing 0064.jpg ...\n",
            "Processing 0065.jpg ...\n",
            "Processing 0066.jpg ...\n",
            "Processing 0067.jpg ...\n",
            "Processing 0068.jpg ...\n",
            "Processing 0069.jpg ...\n",
            "Processing 0070.jpg ...\n",
            "Processing 0071.jpg ...\n",
            "Processing 0072.jpg ...\n",
            "Processing 0073.jpg ...\n",
            "Processing 0074.jpg ...\n",
            "Processing 0075.jpg ...\n",
            "Processing 0076.jpg ...\n",
            "Processing 0077.jpg ...\n",
            "Processing 0078.jpg ...\n",
            "Processing 0079.jpg ...\n",
            "Processing 0080.jpg ...\n",
            "Processing 0081.jpg ...\n",
            "Processing 0082.jpg ...\n",
            "Processing 0083.jpg ...\n",
            "Processing 0084.jpg ...\n",
            "Processing 0085.jpg ...\n",
            "Processing 0086.jpg ...\n",
            "Processing 0087.jpg ...\n",
            "Processing 0088.jpg ...\n",
            "Processing 0089.jpg ...\n",
            "Processing 0090.jpg ...\n",
            "Processing 0091.jpg ...\n",
            "Processing 0092.jpg ...\n",
            "Processing 0093.jpg ...\n",
            "Processing 0094.jpg ...\n",
            "Processing 0095.jpg ...\n",
            "Processing 0096.jpg ...\n",
            "Processing 0097.jpg ...\n",
            "Processing 0098.jpg ...\n",
            "Processing 0099.jpg ...\n",
            "Processing 0100.jpg ...\n",
            "Processing 0101.jpg ...\n",
            "Processing 0102.jpg ...\n",
            "Processing 0103.jpg ...\n",
            "Processing 0104.jpg ...\n",
            "Processing 0105.jpg ...\n",
            "Processing 0106.jpg ...\n",
            "Processing 0107.jpg ...\n",
            "Processing 0108.jpg ...\n",
            "Processing 0109.jpg ...\n",
            "Processing 0110.jpg ...\n",
            "Processing 0111.jpg ...\n",
            "Processing 0112.jpg ...\n",
            "Processing 0113.jpg ...\n",
            "Processing 0114.jpg ...\n",
            "Processing 0115.jpg ...\n",
            "Processing 0116.jpg ...\n",
            "Processing 0117.jpg ...\n",
            "Processing 0118.jpg ...\n",
            "Processing 0119.jpg ...\n",
            "Processing 0120.jpg ...\n",
            "Processing 0121.jpg ...\n",
            "Processing 0122.jpg ...\n",
            "Processing 0123.jpg ...\n",
            "Processing 0124.jpg ...\n",
            "Processing 0125.jpg ...\n",
            "Processing 0126.jpg ...\n",
            "Processing 0127.jpg ...\n",
            "Processing 0128.jpg ...\n",
            "Processing 0129.jpg ...\n",
            "Processing 0130.jpg ...\n",
            "Processing 0131.jpg ...\n",
            "Processing 0132.jpg ...\n",
            "Processing 0133.jpg ...\n",
            "Processing 0134.jpg ...\n",
            "Processing 0135.jpg ...\n",
            "Processing 0136.jpg ...\n",
            "Processing 0137.jpg ...\n",
            "Processing 0138.jpg ...\n",
            "Processing 0139.jpg ...\n",
            "Processing 0140.jpg ...\n",
            "Processing 0141.jpg ...\n",
            "Processing 0142.jpg ...\n",
            "Processing 0143.jpg ...\n",
            "Processing 0144.jpg ...\n",
            "Processing 0145.jpg ...\n",
            "Processing 0146.jpg ...\n",
            "Processing 0147.jpg ...\n",
            "Processing 0148.jpg ...\n",
            "Processing 0149.jpg ...\n",
            "Processing 0150.jpg ...\n",
            "Processing 0151.jpg ...\n",
            "Processing 0152.jpg ...\n",
            "Processing 0153.jpg ...\n",
            "Processing 0154.jpg ...\n",
            "Processing 0155.jpg ...\n",
            "Processing 0156.jpg ...\n",
            "Processing 0157.jpg ...\n",
            "Processing 0158.jpg ...\n",
            "Processing 0159.jpg ...\n",
            "Processing 0160.jpg ...\n",
            "Processing 0161.jpg ...\n",
            "Processing 0162.jpg ...\n",
            "Processing 0163.jpg ...\n",
            "Processing 0164.jpg ...\n",
            "Processing 0165.jpg ...\n",
            "Processing 0166.jpg ...\n",
            "Processing 0167.jpg ...\n",
            "Processing 0168.jpg ...\n",
            "Processing 0169.jpg ...\n",
            "Processing 0170.jpg ...\n",
            "Processing 0171.jpg ...\n",
            "Processing 0172.jpg ...\n",
            "Processing 0173.jpg ...\n",
            "Processing 0174.jpg ...\n",
            "Processing 0175.jpg ...\n",
            "Processing 0176.jpg ...\n",
            "Processing 0177.jpg ...\n",
            "Processing 0178.jpg ...\n",
            "Processing 0179.jpg ...\n",
            "Processing 0180.jpg ...\n",
            "Processing 0181.jpg ...\n",
            "Processing 0182.jpg ...\n",
            "Processing 0183.jpg ...\n",
            "Processing 0184.jpg ...\n",
            "Processing 0185.jpg ...\n",
            "Processing 0186.jpg ...\n",
            "Processing 0187.jpg ...\n",
            "Processing 0188.jpg ...\n",
            "Processing 0189.jpg ...\n",
            "Processing 0190.jpg ...\n",
            "Processing 0191.jpg ...\n",
            "Processing 0192.jpg ...\n",
            "Processing 0193.jpg ...\n",
            "Processing 0194.jpg ...\n",
            "Processing 0195.jpg ...\n",
            "Processing 0196.jpg ...\n",
            "Processing 0197.jpg ...\n",
            "Processing 0198.jpg ...\n",
            "Processing 0199.jpg ...\n",
            "Processing 0200.jpg ...\n",
            "Processing 0201.jpg ...\n",
            "Processing 0202.jpg ...\n",
            "Processing 0203.jpg ...\n",
            "Processing 0204.jpg ...\n",
            "Processing 0205.jpg ...\n",
            "Processing 0206.jpg ...\n",
            "Processing 0207.jpg ...\n",
            "Processing 0208.jpg ...\n",
            "Processing 0209.jpg ...\n",
            "Processing 0210.jpg ...\n",
            "Processing 0211.jpg ...\n",
            "Processing 0212.jpg ...\n",
            "Processing 0213.jpg ...\n",
            "Processing 0214.jpg ...\n",
            "Processing 0215.jpg ...\n",
            "Processing 0216.jpg ...\n",
            "Processing 0217.jpg ...\n",
            "Processing 0218.jpg ...\n",
            "Processing 0219.jpg ...\n",
            "Processing 0220.jpg ...\n",
            "Processing 0221.jpg ...\n",
            "Processing 0222.jpg ...\n",
            "Processing 0223.jpg ...\n",
            "Processing 0224.jpg ...\n",
            "Processing 0225.jpg ...\n",
            "Processing 0226.jpg ...\n",
            "Processing 0227.jpg ...\n",
            "Processing 0228.jpg ...\n",
            "Processing 0229.jpg ...\n",
            "Processing 0230.jpg ...\n",
            "Processing 0231.jpg ...\n",
            "Processing 0232.jpg ...\n",
            "Processing 0233.jpg ...\n",
            "Processing 0234.jpg ...\n",
            "Processing 0235.jpg ...\n",
            "Processing 0236.jpg ...\n",
            "Processing 0237.jpg ...\n",
            "Processing 0238.jpg ...\n",
            "Processing 0239.jpg ...\n",
            "Processing 0240.jpg ...\n",
            "Processing 0241.jpg ...\n",
            "Processing 0242.jpg ...\n",
            "Processing 0243.jpg ...\n",
            "Processing 0244.jpg ...\n",
            "Processing 0245.jpg ...\n",
            "Processing 0246.jpg ...\n",
            "Processing 0247.jpg ...\n",
            "Processing 0248.jpg ...\n",
            "Processing 0249.jpg ...\n",
            "Processing 0250.jpg ...\n",
            "Processing 0251.jpg ...\n",
            "Processing 0252.jpg ...\n",
            "Processing 0253.jpg ...\n",
            "Processing 0254.jpg ...\n",
            "Processing 0255.jpg ...\n",
            "Processing 0256.jpg ...\n",
            "Processing 0257.jpg ...\n",
            "Processing 0258.jpg ...\n",
            "Processing 0259.jpg ...\n",
            "Processing 0260.jpg ...\n",
            "Processing 0261.jpg ...\n",
            "Processing 0262.jpg ...\n",
            "Processing 0263.jpg ...\n",
            "Processing 0264.jpg ...\n",
            "Processing 0265.jpg ...\n",
            "Processing 0266.jpg ...\n",
            "Processing 0267.jpg ...\n",
            "Processing 0268.jpg ...\n",
            "Processing 0269.jpg ...\n",
            "Processing 0270.jpg ...\n",
            "Processing 0271.jpg ...\n",
            "Processing 0272.jpg ...\n",
            "Processing 0273.jpg ...\n",
            "Processing 0274.jpg ...\n",
            "Results are in the [/content/deepfake-dubbing/outputs] folder.\n"
          ]
        }
      ],
      "source": [
        "!cd $gfpganFolderName &&  python inference_gfpgan.py -i $unProcessedFramesFolderPath -o $outputPath -v 1.3 -s 2 --only_center_face --bg_upsampler None\n"
      ]
    },
    {
      "cell_type": "code",
      "execution_count": null,
      "metadata": {
        "colab": {
          "base_uri": "https://localhost:8080/"
        },
        "id": "GZS96O5LHeW8",
        "outputId": "ae0b2e9d-9a30-4266-86d3-2e0653a59df8"
      },
      "outputs": [
        {
          "name": "stderr",
          "output_type": "stream",
          "text": [
            "\r  0%|          | 0/1 [00:00<?, ?it/s]"
          ]
        },
        {
          "name": "stdout",
          "output_type": "stream",
          "text": [
            "processing  0 300\n"
          ]
        },
        {
          "name": "stderr",
          "output_type": "stream",
          "text": [
            "\n",
            "  0%|          | 0/275 [00:00<?, ?it/s]\u001b[A\n",
            "  3%|         | 9/275 [00:00<00:03, 85.68it/s]\u001b[A\n",
            "  7%|         | 18/275 [00:00<00:02, 86.06it/s]\u001b[A\n",
            " 10%|         | 27/275 [00:00<00:02, 85.65it/s]\u001b[A\n",
            " 13%|        | 36/275 [00:00<00:02, 84.12it/s]\u001b[A\n",
            " 16%|        | 45/275 [00:00<00:02, 83.52it/s]\u001b[A\n",
            " 20%|        | 54/275 [00:00<00:02, 83.51it/s]\u001b[A\n",
            " 23%|       | 63/275 [00:00<00:02, 83.50it/s]\u001b[A\n",
            " 26%|       | 72/275 [00:00<00:02, 84.72it/s]\u001b[A\n",
            " 29%|       | 81/275 [00:00<00:02, 84.46it/s]\u001b[A\n",
            " 33%|      | 90/275 [00:01<00:02, 82.40it/s]\u001b[A\n",
            " 36%|      | 99/275 [00:01<00:02, 83.82it/s]\u001b[A\n",
            " 39%|      | 108/275 [00:01<00:02, 83.27it/s]\u001b[A\n",
            " 43%|     | 117/275 [00:01<00:01, 84.33it/s]\u001b[A\n",
            " 46%|     | 126/275 [00:01<00:01, 85.32it/s]\u001b[A\n",
            " 49%|     | 135/275 [00:01<00:01, 80.23it/s]\u001b[A\n",
            " 52%|    | 144/275 [00:01<00:01, 82.11it/s]\u001b[A\n",
            " 56%|    | 153/275 [00:01<00:01, 82.79it/s]\u001b[A\n",
            " 59%|    | 162/275 [00:01<00:01, 84.15it/s]\u001b[A\n",
            " 62%|   | 171/275 [00:02<00:01, 83.12it/s]\u001b[A\n",
            " 65%|   | 180/275 [00:02<00:01, 82.41it/s]\u001b[A\n",
            " 69%|   | 189/275 [00:02<00:01, 83.35it/s]\u001b[A\n",
            " 72%|  | 198/275 [00:02<00:00, 84.49it/s]\u001b[A\n",
            " 75%|  | 207/275 [00:02<00:00, 74.31it/s]\u001b[A\n",
            " 78%|  | 215/275 [00:02<00:00, 68.17it/s]\u001b[A\n",
            " 81%|  | 223/275 [00:02<00:00, 64.31it/s]\u001b[A\n",
            " 84%| | 230/275 [00:02<00:00, 61.52it/s]\u001b[A\n",
            " 86%| | 237/275 [00:03<00:00, 57.85it/s]\u001b[A\n",
            " 88%| | 243/275 [00:03<00:00, 56.79it/s]\u001b[A\n",
            " 91%| | 249/275 [00:03<00:00, 56.29it/s]\u001b[A\n",
            " 93%|| 255/275 [00:03<00:00, 55.65it/s]\u001b[A\n",
            " 95%|| 261/275 [00:03<00:00, 55.16it/s]\u001b[A\n",
            " 97%|| 267/275 [00:03<00:00, 53.20it/s]\u001b[A\n",
            "100%|| 275/275 [00:03<00:00, 71.98it/s]\n",
            "100%|| 1/1 [00:05<00:00,  5.85s/it]\n"
          ]
        }
      ],
      "source": [
        "import os\n",
        "restoredFramesPath = outputPath + '/restored_imgs/'\n",
        "processedVideoOutputPath = outputPath\n",
        "\n",
        "dir_list = os.listdir(restoredFramesPath)\n",
        "dir_list.sort()\n",
        "\n",
        "import cv2\n",
        "import numpy as np\n",
        "\n",
        "batch = 0\n",
        "batchSize = 300\n",
        "from tqdm import tqdm\n",
        "for i in tqdm(range(0, len(dir_list), batchSize)):\n",
        "  img_array = []\n",
        "  start, end = i, i+batchSize\n",
        "  print(\"processing \", start, end)\n",
        "  for filename in  tqdm(dir_list[start:end]):\n",
        "      filename = restoredFramesPath+filename;\n",
        "      img = cv2.imread(filename)\n",
        "      if img is None:\n",
        "        continue\n",
        "      height, width, layers = img.shape\n",
        "      size = (width,height)\n",
        "      img_array.append(img)\n",
        "\n",
        "\n",
        "  out = cv2.VideoWriter(processedVideoOutputPath+'/batch_'+str(batch).zfill(4)+'.avi',cv2.VideoWriter_fourcc(*'DIVX'), 30, size)\n",
        "  batch = batch + 1\n",
        " \n",
        "  for i in range(len(img_array)):\n",
        "    out.write(img_array[i])\n",
        "  out.release()"
      ]
    },
    {
      "cell_type": "code",
      "execution_count": null,
      "metadata": {
        "colab": {
          "base_uri": "https://localhost:8080/"
        },
        "id": "i-51JCzIHgs2",
        "outputId": "5a0552fc-2603-424b-811d-159b5d58d194"
      },
      "outputs": [
        {
          "name": "stdout",
          "output_type": "stream",
          "text": [
            "ffmpeg version 4.2.7-0ubuntu0.1 Copyright (c) 2000-2022 the FFmpeg developers\n",
            "  built with gcc 9 (Ubuntu 9.4.0-1ubuntu1~20.04.1)\n",
            "  configuration: --prefix=/usr --extra-version=0ubuntu0.1 --toolchain=hardened --libdir=/usr/lib/x86_64-linux-gnu --incdir=/usr/include/x86_64-linux-gnu --arch=amd64 --enable-gpl --disable-stripping --enable-avresample --disable-filter=resample --enable-avisynth --enable-gnutls --enable-ladspa --enable-libaom --enable-libass --enable-libbluray --enable-libbs2b --enable-libcaca --enable-libcdio --enable-libcodec2 --enable-libflite --enable-libfontconfig --enable-libfreetype --enable-libfribidi --enable-libgme --enable-libgsm --enable-libjack --enable-libmp3lame --enable-libmysofa --enable-libopenjpeg --enable-libopenmpt --enable-libopus --enable-libpulse --enable-librsvg --enable-librubberband --enable-libshine --enable-libsnappy --enable-libsoxr --enable-libspeex --enable-libssh --enable-libtheora --enable-libtwolame --enable-libvidstab --enable-libvorbis --enable-libvpx --enable-libwavpack --enable-libwebp --enable-libx265 --enable-libxml2 --enable-libxvid --enable-libzmq --enable-libzvbi --enable-lv2 --enable-omx --enable-openal --enable-opencl --enable-opengl --enable-sdl2 --enable-libdc1394 --enable-libdrm --enable-libiec61883 --enable-nvenc --enable-chromaprint --enable-frei0r --enable-libx264 --enable-shared\n",
            "  libavutil      56. 31.100 / 56. 31.100\n",
            "  libavcodec     58. 54.100 / 58. 54.100\n",
            "  libavformat    58. 29.100 / 58. 29.100\n",
            "  libavdevice    58.  8.100 / 58.  8.100\n",
            "  libavfilter     7. 57.100 /  7. 57.100\n",
            "  libavresample   4.  0.  0 /  4.  0.  0\n",
            "  libswscale      5.  5.100 /  5.  5.100\n",
            "  libswresample   3.  5.100 /  3.  5.100\n",
            "  libpostproc    55.  5.100 / 55.  5.100\n",
            "Input #0, concat, from '/content/deepfake-dubbing/outputs/concat.txt':\n",
            "  Duration: N/A, start: 0.000000, bitrate: 4571 kb/s\n",
            "    Stream #0:0: Video: mpeg4 (Simple Profile) (DIVX / 0x58564944), yuv420p, 1280x736 [SAR 1:1 DAR 40:23], 4571 kb/s, 30 fps, 30 tbr, 30 tbn, 30 tbc\n",
            "Output #0, avi, to '/content/deepfake-dubbing/outputs/concated_output.avi':\n",
            "  Metadata:\n",
            "    ISFT            : Lavf58.29.100\n",
            "    Stream #0:0: Video: mpeg4 (Simple Profile) (DIVX / 0x58564944), yuv420p, 1280x736 [SAR 1:1 DAR 40:23], q=2-31, 4571 kb/s, 30 fps, 30 tbr, 30 tbn, 30 tbc\n",
            "Stream mapping:\n",
            "  Stream #0:0 -> #0:0 (copy)\n",
            "Press [q] to stop, [?] for help\n",
            "frame=  275 fps=0.0 q=-1.0 Lsize=    5109kB time=00:00:09.16 bitrate=4566.1kbits/s speed=1.43e+03x    \n",
            "video:5097kB audio:0kB subtitle:0kB other streams:0kB global headers:0kB muxing overhead: 0.240351%\n",
            "ffmpeg version 4.2.7-0ubuntu0.1 Copyright (c) 2000-2022 the FFmpeg developers\n",
            "  built with gcc 9 (Ubuntu 9.4.0-1ubuntu1~20.04.1)\n",
            "  configuration: --prefix=/usr --extra-version=0ubuntu0.1 --toolchain=hardened --libdir=/usr/lib/x86_64-linux-gnu --incdir=/usr/include/x86_64-linux-gnu --arch=amd64 --enable-gpl --disable-stripping --enable-avresample --disable-filter=resample --enable-avisynth --enable-gnutls --enable-ladspa --enable-libaom --enable-libass --enable-libbluray --enable-libbs2b --enable-libcaca --enable-libcdio --enable-libcodec2 --enable-libflite --enable-libfontconfig --enable-libfreetype --enable-libfribidi --enable-libgme --enable-libgsm --enable-libjack --enable-libmp3lame --enable-libmysofa --enable-libopenjpeg --enable-libopenmpt --enable-libopus --enable-libpulse --enable-librsvg --enable-librubberband --enable-libshine --enable-libsnappy --enable-libsoxr --enable-libspeex --enable-libssh --enable-libtheora --enable-libtwolame --enable-libvidstab --enable-libvorbis --enable-libvpx --enable-libwavpack --enable-libwebp --enable-libx265 --enable-libxml2 --enable-libxvid --enable-libzmq --enable-libzvbi --enable-lv2 --enable-omx --enable-openal --enable-opencl --enable-opengl --enable-sdl2 --enable-libdc1394 --enable-libdrm --enable-libiec61883 --enable-nvenc --enable-chromaprint --enable-frei0r --enable-libx264 --enable-shared\n",
            "  libavutil      56. 31.100 / 56. 31.100\n",
            "  libavcodec     58. 54.100 / 58. 54.100\n",
            "  libavformat    58. 29.100 / 58. 29.100\n",
            "  libavdevice    58.  8.100 / 58.  8.100\n",
            "  libavfilter     7. 57.100 /  7. 57.100\n",
            "  libavresample   4.  0.  0 /  4.  0.  0\n",
            "  libswscale      5.  5.100 /  5.  5.100\n",
            "  libswresample   3.  5.100 /  3.  5.100\n",
            "  libpostproc    55.  5.100 / 55.  5.100\n",
            "Input #0, avi, from '/content/deepfake-dubbing/outputs/concated_output.avi':\n",
            "  Metadata:\n",
            "    encoder         : Lavf58.29.100\n",
            "  Duration: 00:00:09.17, start: 0.000000, bitrate: 4566 kb/s\n",
            "    Stream #0:0: Video: mpeg4 (Simple Profile) (DIVX / 0x58564944), yuv420p, 1280x736 [SAR 1:1 DAR 40:23], 4571 kb/s, 30 fps, 30 tbr, 30 tbn, 30 tbc\n",
            "\u001b[0;33mGuessed Channel Layout for Input Stream #1.0 : stereo\n",
            "\u001b[0mInput #1, wav, from '/content/output_tamil.wav':\n",
            "  Metadata:\n",
            "    encoder         : Lavf58.29.100\n",
            "  Duration: 00:00:09.45, bitrate: 1411 kb/s\n",
            "    Stream #1:0: Audio: pcm_s16le ([1][0][0][0] / 0x0001), 44100 Hz, stereo, s16, 1411 kb/s\n",
            "Stream mapping:\n",
            "  Stream #0:0 -> #0:0 (copy)\n",
            "  Stream #1:0 -> #0:1 (pcm_s16le (native) -> mp3 (libmp3lame))\n",
            "Press [q] to stop, [?] for help\n",
            "Output #0, avi, to '/content/deepfake-dubbing/outputs/final_with_audio.avi':\n",
            "  Metadata:\n",
            "    ISFT            : Lavf58.29.100\n",
            "    Stream #0:0: Video: mpeg4 (Simple Profile) (DIVX / 0x58564944), yuv420p, 1280x736 [SAR 1:1 DAR 40:23], q=2-31, 4571 kb/s, 30 fps, 30 tbr, 30 tbn, 30 tbc\n",
            "    Stream #0:1: Audio: mp3 (libmp3lame) (U[0][0][0] / 0x0055), 44100 Hz, stereo, s16p\n",
            "    Metadata:\n",
            "      encoder         : Lavc58.54.100 libmp3lame\n",
            "frame=  275 fps=0.0 q=-1.0 Lsize=    5265kB time=00:00:09.16 bitrate=4704.4kbits/s speed=51.5x    \n",
            "video:5097kB audio:144kB subtitle:0kB other streams:0kB global headers:0kB muxing overhead: 0.470953%\n"
          ]
        }
      ],
      "source": [
        "concatTextFilePath = outputPath + \"/concat.txt\"\n",
        "concatTextFile=open(concatTextFilePath,\"w\")\n",
        "for ips in range(batch):\n",
        "  concatTextFile.write(\"file batch_\" + str(ips).zfill(4) + \".avi\\n\")\n",
        "concatTextFile.close()\n",
        "\n",
        "concatedVideoOutputPath = outputPath + \"/concated_output.avi\"\n",
        "!ffmpeg -y -f concat -i {concatTextFilePath} -c copy {concatedVideoOutputPath} \n",
        "\n",
        "finalProcessedOuputVideo = processedVideoOutputPath+'/final_with_audio.avi'\n",
        "!ffmpeg -y -i {concatedVideoOutputPath} -i {inputAudioPath} -map 0 -map 1:a -c:v copy -shortest {finalProcessedOuputVideo}\n",
        "\n",
        "# from google.colab import files\n",
        "# files.download(finalProcessedOuputVideo)"
      ]
    },
    {
      "cell_type": "code",
      "execution_count": null,
      "metadata": {
        "colab": {
          "base_uri": "https://localhost:8080/"
        },
        "id": "1z19MW0JeVs9",
        "outputId": "f5134a27-9a7d-49c3-d7d6-11ce3a5914ed"
      },
      "outputs": [
        {
          "data": {
            "text/plain": [
              "1"
            ]
          },
          "execution_count": 16,
          "metadata": {},
          "output_type": "execute_result"
        }
      ],
      "source": [
        "import subprocess\n",
        "\n",
        "command= 'ffmpeg -y -i {} -i {} -strict -2 -q:v 1 {}'.format(\"/content/output_tamil.wav\",\"/content/deepfake-dubbing/outputs/final_with_audio.avi\", \"/content/deepfake-dubbing/outputs/final_with_audio.avi\")\n",
        "subprocess.call(command, shell=True)"
      ]
    }
  ],
  "metadata": {
    "accelerator": "GPU",
    "colab": {
      "provenance": []
    },
    "gpuClass": "standard",
    "kernelspec": {
      "display_name": "Python 3",
      "name": "python3"
    },
    "language_info": {
      "name": "python"
    }
  },
  "nbformat": 4,
  "nbformat_minor": 0
}
